<svg id="Layer_1" data-name="Layer 1" xmlns="http://www.w3.org/2000/svg" viewBox="0 0 213.9199 113.4724">
  <defs>
    <style>
      .cls-1 {
        fill: #fff;
      }
    </style>
  </defs>
  <path class="cls-1" d="M302.9143,10.6571" transform="translate(-6.996 -7.6892)"/>
  <g>
    <path class="cls-1" d="M100.6083,119.5649v-.1465a1.9666,1.9666,0,0,1,.667-1.1641,2.2352,2.2352,0,0,1,1.2959-.3154.7994.7994,0,0,1,.4834.1611,1.72,1.72,0,0,1,.3887.4033,2.2461,2.2461,0,0,1,.2636.5049,1.4262,1.4262,0,0,1,.0948.4688,1.6553,1.6553,0,0,1-.41,1.165,1.4915,1.4915,0,0,1-1.1572.4463,1.4294,1.4294,0,0,1-.5781-.124,1.8884,1.8884,0,0,1-.52-.3369,1.7729,1.7729,0,0,1-.3809-.4912A1.2125,1.2125,0,0,1,100.6083,119.5649Z" transform="translate(-6.996 -7.6892)"/>
    <path class="cls-1" d="M106.4384,119.5649v-.1465a1.9666,1.9666,0,0,1,.667-1.1641,2.2352,2.2352,0,0,1,1.2959-.3154.7994.7994,0,0,1,.4834.1611,1.72,1.72,0,0,1,.3887.4033,2.2461,2.2461,0,0,1,.2636.5049,1.4262,1.4262,0,0,1,.0948.4688,1.6557,1.6557,0,0,1-.41,1.165,1.4915,1.4915,0,0,1-1.1572.4463,1.43,1.43,0,0,1-.5782-.124,1.89,1.89,0,0,1-.52-.3369,1.7725,1.7725,0,0,1-.3808-.4912A1.2125,1.2125,0,0,1,106.4384,119.5649Z" transform="translate(-6.996 -7.6892)"/>
    <path class="cls-1" d="M112.2685,119.5649v-.1465a1.9661,1.9661,0,0,1,.667-1.1641,2.235,2.235,0,0,1,1.2959-.3154.8.8,0,0,1,.4834.1611,1.72,1.72,0,0,1,.3886.4033,2.2425,2.2425,0,0,1,.2637.5049,1.4258,1.4258,0,0,1,.0947.4688,1.6556,1.6556,0,0,1-.41,1.165,1.4918,1.4918,0,0,1-1.1573.4463,1.43,1.43,0,0,1-.5781-.124,1.89,1.89,0,0,1-.52-.3369,1.7725,1.7725,0,0,1-.3808-.4912A1.2125,1.2125,0,0,1,112.2685,119.5649Z" transform="translate(-6.996 -7.6892)"/>
    <path class="cls-1" d="M117.85,118.0414a2.1926,2.1926,0,0,1,.2266-.9668,3.5414,3.5414,0,0,1,.5937-.8642,5.009,5.009,0,0,1,.8057-.7031,5.2892,5.2892,0,0,1,.8643-.4981.53.53,0,0,0,.0957-.0293,1.628,1.628,0,0,1,.1679-.0508,1.6824,1.6824,0,0,0,.168-.0517.4021.4021,0,0,1,.11-.0293.7971.7971,0,0,1,.0947-.0655c.0537-.0341.11-.0732.1689-.1171s.1143-.086.169-.125a.9275.9275,0,0,1,.1093-.0733,4.8155,4.8155,0,0,1,1.0762-.4756q.5948-.183,1.1358-.33a3.71,3.71,0,0,0,.4687-.2051.5877.5877,0,0,0,.249-.4541c0-.01.0049-.0459.0147-.1094s.02-.14.0293-.2275.0195-.1778.0293-.2706.0146-.164.0146-.2128v-.1172c0-.0879-.0049-.2022-.0146-.3438s-.02-.2783-.0293-.41-.02-.2471-.0293-.3448-.0147-.1513-.0147-.1611a1.9552,1.9552,0,0,0-.2422-.6514,2.188,2.188,0,0,0-.4609-.5566,2.3839,2.3839,0,0,0-.6152-.3887,1.7463,1.7463,0,0,0-.7032-.1465,2.9029,2.9029,0,0,0-.623.0664,1.5046,1.5046,0,0,0-.5273.22,1.35,1.35,0,0,0-.3809.3955,1.431,1.431,0,0,0-.1973.5928c-.0195.1757-.0322.3564-.0371.5419a.62.62,0,0,1-.2265.4688c-.0293.0293-.0733.0713-.1319.125s-.12.1045-.1826.1533c-.0644.0488-.12.0908-.1689.125a.9634.9634,0,0,0-.0879.0654c-.0782.0586-.1826.1348-.3155.2276a.9409.9409,0,0,1-.2265.1387h-1.084c-.0195,0-.0508-.0362-.0957-.1094a1.5664,1.5664,0,0,0-.124-.1836c-.0586-.127-.1006-.2119-.1241-.2559a.5844.5844,0,0,1-.0371-.2568v-.1025a2.775,2.775,0,0,1,.711-1.0762,5.5818,5.5818,0,0,1,1.0322-.7695c.01,0,.0244-.0166.0439-.0508s.0391-.0518.0586-.0518a6.51,6.51,0,0,1,1.626-1.04,4.7585,4.7585,0,0,1,2.461-.3809c.1562.0195.3046.044.4462.0733s.2862.0664.4327.11.3173.0947.5127.1533a8.0316,8.0316,0,0,1,.7177.5713,2.94,2.94,0,0,1,.5127.6006,2.6181,2.6181,0,0,1,.3145.7178,3.3014,3.3014,0,0,1,.11.8935v.0586q-.1319,1.7579-.2929,3.5381t-.1612,3.5225a1.861,1.861,0,0,0,.1758.8281,1.0475,1.0475,0,0,0,.6152.52h.1758a2.2754,2.2754,0,0,0,.5645-.0654,3.072,3.072,0,0,0,.498-.1758c.16-.0732.3242-.1513.49-.2344s.3369-.164.5127-.2421v.1757a.7336.7336,0,0,1-.1827.5274c-.123.1269-.2519.2637-.3886.41l-.0733.0733a1.18,1.18,0,0,0-.1172.14c-.039.0537-.0761.1026-.11.1465s-.0557.07-.0654.08a.5256.5256,0,0,1-.1983.1689c-.0723.0342-.1631.07-.2705.1094a6.5347,6.5347,0,0,1-.8135.2715,3.3888,3.3888,0,0,1-.8857.124h-.1465a.3906.3906,0,0,1-.1465-.0293q-.0732-.0146-.2344-.0586t-.3369-.1025q-.1758-.0587-.3222-.1172t-.2051-.0879a2.01,2.01,0,0,1-.19-.168c-.0977-.0927-.1612-.1543-.1905-.1836a1.4809,1.4809,0,0,1-.1543-.2851c-.0635-.1416-.1308-.291-.2051-.4473-.0722-.1562-.1416-.2929-.205-.41s-.1094-.1758-.1387-.1758a.3178.3178,0,0,0-.2051.125,2.9436,2.9436,0,0,0-.2344.2851q-.1171.1612-.22.3223a.9329.9329,0,0,1-.1758.22q-.2783.2345-.5127.4327a3.5031,3.5031,0,0,1-.4834.3437,2.2718,2.2718,0,0,1-.5341.2275,2.4734,2.4734,0,0,1-.667.08c-.1367,0-.2569-.0019-.3584-.0068a1.6852,1.6852,0,0,1-.2862-.0371,1.4015,1.4015,0,0,1-.2636-.0879,2.2934,2.2934,0,0,1-.293-.1611,7.0149,7.0149,0,0,1-.9014-.5713,1.414,1.414,0,0,1-.5488-.8643,6.4656,6.4656,0,0,1-.1543-.63A3.1453,3.1453,0,0,1,117.85,118.0414Zm2.0948-.6445a1.7641,1.7641,0,0,0,.081.5273,1.6878,1.6878,0,0,0,.2266.4766,1.1717,1.1717,0,0,0,.3662.3438.9782.9782,0,0,0,.5127.1318c.2832,0,.5683-.01.8574-.0293a2.5091,2.5091,0,0,0,.8125-.19,2.0542,2.0542,0,0,0,.6152-.27q.2784-.1832.5713-.3448a7.7837,7.7837,0,0,0,.1026-.9521q.0146-.41.0146-.9229,0-.4687-.0146-.8564a5.5676,5.5676,0,0,0-.1026-.8428h-.1758a1.6247,1.6247,0,0,0-.4687.0664,3.5588,3.5588,0,0,0-.4326.1612c-.1416.0634-.2774.1289-.41.1972a4.5131,4.5131,0,0,1-.417.19,2.1822,2.1822,0,0,1-.3291.14,1.3742,1.3742,0,0,0-.33.168q-.22.1611-.4765.3808a4.0471,4.0471,0,0,0-.4756.4834,3.3752,3.3752,0,0,0-.374.55A1.2439,1.2439,0,0,0,119.9443,117.3969Z" transform="translate(-6.996 -7.6892)"/>
    <path class="cls-1" d="M129.8173,120.6049a.2148.2148,0,0,1,.11-.2637,1.3724,1.3724,0,0,1,.3652-.1386,3.2693,3.2693,0,0,1,.418-.0733.7577.7577,0,0,0,.2783-.0664.64.64,0,0,0,.1982-.1972,2.8711,2.8711,0,0,0,.1758-.3008,1.752,1.752,0,0,0,.124-.3291c.0293-.1123.0537-.208.0733-.2862q0-.0293.0146-.22t.0293-.4394l.0293-.4981q.0147-.249.0293-.3955V117.28a3.3116,3.3116,0,0,0-.0518-.5713,3.5744,3.5744,0,0,1-.0507-.6152,4.3327,4.3327,0,0,1,.0507-.666,4.431,4.431,0,0,0,.0518-.6817v-.3662a1.9438,1.9438,0,0,1-.0293-.2558c-.01-.1319-.0195-.2764-.0293-.4327s-.0195-.3-.0293-.4316-.0146-.2178-.0146-.2568v-1.4795a1.7327,1.7327,0,0,0-.0147-.1826c-.01-.083-.02-.1739-.0293-.2715s-.0195-.1875-.0293-.27a1.59,1.59,0,0,0-.0293-.1836.4142.4142,0,0,0-.2412-.3662,1.3656,1.3656,0,0,0-.4326-.08q-.2344-.0074-.4688-.0293a.3922.3922,0,0,1-.3369-.2422,1.2451,1.2451,0,0,1,.2422-.2783,1.218,1.218,0,0,1,.2637-.168c.0918-.0439.1894-.0859.293-.125a3.0374,3.0374,0,0,0,.3437-.1611,1.0669,1.0669,0,0,1,.0957-.0733c.0527-.039.1094-.08.168-.124s.1142-.083.168-.1172.0908-.0566.11-.0664.0732-.0361.1611-.08.1836-.0908.2852-.14c.1035-.0488.1982-.0977.2861-.1465s.1465-.083.1758-.1025l.0879-.0879q.0732-.0732.1025-.0733a.182.182,0,0,1,.0733-.0293.9163.9163,0,0,1,.14-.0214,1.2115,1.2115,0,0,0,.1465-.0225.1991.1991,0,0,0,.08-.0293q.0439,0,.1465-.1318t.1318-.1319h.0733a.5139.5139,0,0,1,.2783.0733.591.591,0,0,1,.19.19c.0391.293.07.6006.0957.9229.0234.3222.0557.63.0947.9228h.293a.655.655,0,0,0,.14-.0146.3028.3028,0,0,0,.1387-.0879q.3516-.3809.77-.7539a6.61,6.61,0,0,1,.8925-.6739,4.8753,4.8753,0,0,1,1.0039-.4834,3.328,3.328,0,0,1,1.0987-.1836,4.6337,4.6337,0,0,1,.55.0293,4.0064,4.0064,0,0,1,.4531.0811,2.6253,2.6253,0,0,1,.418.1387q.205.0879.4687.205a.8715.8715,0,0,1,.1543.0371c.082.0245.124.0411.124.0508a.1767.1767,0,0,1,.0518.0147c.0234.01.0459.02.0654.0293a.559.559,0,0,1,.0733.0293,5.5867,5.5867,0,0,1,.6074.7177,2.41,2.41,0,0,1,.293.5713,4.0582,4.0582,0,0,1,.1543.6153q.0585.3369.205.8642a5.0513,5.0513,0,0,1,.0586.5059q.0294.3588.0586.7685t.0586.77q.0292.3588.044.5049v2.5634c0,.0684-.0049.1934-.0147.3741s-.0215.373-.0371.5781c-.0137.2051-.0264.4-.0361.5859s-.0147.3125-.0147.3809a.7.7,0,0,1-.0664.0957.1942.1942,0,0,0-.0508.1094.5733.5733,0,0,0,.0147.081c.01.044.0224.0928.0361.1465.0156.0537.0293.1.0449.1387a.357.357,0,0,1,.0215.0732v.835a.55.55,0,0,0,.0733.0957c.039.0439.083.09.1318.1386s.0957.0957.1387.14a.828.828,0,0,0,.11.0947c.01,0,.0733.0127.19.0371a1.4093,1.4093,0,0,0,.249.0362c.039.01.1045.0273.1982.0517a1.82,1.82,0,0,1,.27.0947.9666.9666,0,0,1,.2276.14.1677.1677,0,0,1,.0654.1826.642.642,0,0,1-.1465.1611q-.1172.1026-.1465.1026h-1.48a1.0222,1.0222,0,0,0-.125-.044.9807.9807,0,0,1-.124-.0439h-.1025a8.9639,8.9639,0,0,0-1.2969.0957,9.0489,9.0489,0,0,1-1.3106.0947h-.1464c-.0879,0-.1953-.0019-.3223-.0068a2.7152,2.7152,0,0,1-.3594-.0371,1.0375,1.0375,0,0,1-.2851-.0879.1786.1786,0,0,1-.1172-.1611.321.321,0,0,1,.249-.3291,4.4435,4.4435,0,0,1,.5713-.14,3.3934,3.3934,0,0,0,.623-.1758.6208.6208,0,0,0,.3877-.4394v-.3662q0-.5421.044-1.0616t.0439-1.0625v-.1465c0-.0585-.0029-.1191-.0068-.1826a.4976.4976,0,0,0-.0811-.2129V112.9q0-.0292-.0146-.1465c-.01-.0781-.0176-.163-.0215-.2558-.0059-.0928-.0127-.1807-.0225-.2637s-.0146-.14-.0146-.1689a6.2031,6.2031,0,0,0-.1094-.6953,1.5389,1.5389,0,0,0-.2129-.5059,1.7315,1.7315,0,0,0-.3808-.4023,4.7844,4.7844,0,0,0-.6006-.3887,2.56,2.56,0,0,0-.44-.1973,1.3945,1.3945,0,0,0-.4541-.081,9.8118,9.8118,0,0,0-1.2744.081,3.8674,3.8674,0,0,0-1.23.3877c-.02,0-.0615.0371-.124.11-.0644.0732-.1054.1191-.125.1386a5.4787,5.4787,0,0,0-.4687.4395,1.4811,1.4811,0,0,0-.293.5713c0,.1465.002.4053.0078.7763q.0058.5567.0068,1.1719,0,.6006-.0068,1.1572c-.0058.3711-.0078.625-.0078.7618,0,.039-.0049.1494-.0146.33s-.0176.3731-.0225.5782-.0117.3984-.0215.5791-.0146.29-.0146.3291v.4394a.2306.2306,0,0,1-.0518.1172.2327.2327,0,0,0-.0508.1026v.0732a.4065.4065,0,0,0,.0293.11c.0195.0538.0391.1094.0586.168s.0391.1152.0586.169a.5053.5053,0,0,1,.0293.0947,1.3372,1.3372,0,0,0,.0215.1689c.0156.083.0273.1709.0371.2637s.0195.1777.0293.2559.0146.1269.0146.1464c0,.0489.002.1075.0069.1758a1.91,1.91,0,0,0,.0293.2129.8376.8376,0,0,0,.0742.2119.2952.2952,0,0,0,.1533.1465c.0391,0,.1143.0029.2276.0078.1113.0049.2265.0117.3437.0215s.2266.0176.33.0225a1.2919,1.2919,0,0,1,.2119.0215.9991.9991,0,0,1,.3154.1318.304.304,0,0,1,.168.2637.5185.5185,0,0,1-.1758.3662.4961.4961,0,0,1-.3369.1758h-.0732q-.0294,0-.1465-.0147c-.0782-.01-.166-.0215-.2637-.0361s-.1885-.0274-.2715-.0371-.1338-.0147-.1533-.0147H131.121c-.0293,0-.083-.0019-.1611-.0068s-.1612-.0127-.249-.0225-.1739-.0195-.2559-.0293a.5826.5826,0,0,1-.1836-.0439,1.6882,1.6882,0,0,1-.2559-.0733A.2683.2683,0,0,1,129.8173,120.6049Z" transform="translate(-6.996 -7.6892)"/>
    <path class="cls-1" d="M145.4179,115.6537v-.0293c.0293-.0586.0664-.1435.1094-.2558a.7957.7957,0,0,0,.0664-.2862.3256.3256,0,0,0-.0371-.1464.4262.4262,0,0,1-.0362-.1905,1.347,1.347,0,0,1,.0879-.4609,2.1784,2.1784,0,0,0,.1172-.5059,7.2532,7.2532,0,0,1,.1533-1.2158,3.6789,3.6789,0,0,1,.4766-1.1426.097.097,0,0,1,.0371-.0654c.0234-.0244.0361-.042.0361-.0517q.0587-.0587.1465-.1612l.1758-.2051c.0586-.0683.1123-.1289.1611-.1826s.0782-.0859.0879-.0957a.8767.8767,0,0,0,.0664-.0947c.0332-.0537.07-.1123.1094-.1758s.0752-.1221.1094-.1758a.2891.2891,0,0,1,.081-.0957,1.2732,1.2732,0,0,1,.4463-.27,1.4312,1.4312,0,0,0,.4619-.2715c.02-.02.0557-.0556.11-.1093.0527-.0537.1094-.1123.168-.1758s.1142-.12.1679-.169.086-.0781.0957-.0879a.3662.3662,0,0,1,.1026-.0439c.0586-.0195.1191-.041.1826-.0654s.122-.0469.1758-.0664.0908-.0342.11-.044a.0648.0648,0,0,0,.0733-.0732q.7617-.1466,1.5673-.3076a8.1925,8.1925,0,0,1,1.6114-.1612,2.5788,2.5788,0,0,1,.5791.0664,2.55,2.55,0,0,0,.5781.0655.32.32,0,0,0,.2637-.1319,1.0252,1.0252,0,0,0,.1611-.3076,1.8746,1.8746,0,0,0,.0811-.373c.0136-.1319.0263-.2422.0361-.33q.0293-.6592.0517-1.377.0205-.7177.0215-1.4209v-.4687q0-.0587-.0146-.249c-.01-.127-.0176-.2608-.0225-.4024s-.0117-.2764-.0215-.4033-.0146-.21-.0146-.249v-.4981c0-.1367-.0049-.27-.0147-.4023a1.0468,1.0468,0,0,0-.0879-.3594.5981.5981,0,0,0-.3369-.293,4.3442,4.3442,0,0,0-.52-.1757c-.1806-.0489-.3418-.1-.4824-.1534-.1426-.0537-.2129-.125-.2129-.2129a.2612.2612,0,0,1,.0508-.124,1.1735,1.1735,0,0,1,.2568-.2861.2212.2212,0,0,1,.1319-.0586.4883.4883,0,0,1,.1386.0518.4982.4982,0,0,0,.14.0507.2505.2505,0,0,0,.1172-.0439.4779.4779,0,0,0,.0732-.0586c.0293-.01.0957-.0313.1973-.0654.1035-.0342.2129-.0733.33-.1172s.2314-.083.3437-.1172.1934-.0567.2422-.0664q.4688-.1611.916-.3516a2.4164,2.4164,0,0,1,.959-.19h.1611a.8637.8637,0,0,1,.2862.0439.2832.2832,0,0,1,.1679.22v.791q0,.7909-.0664,1.5752-.0643.7836-.0654,1.6035a1.6216,1.6216,0,0,0,.0146.249,1.251,1.251,0,0,0,.1172.293q-.0146.0879-.0293.3076c-.01.1465-.0215.3027-.0371.4687-.0136.1661-.0263.3223-.0361.4688s-.0195.249-.0293.3076q-.0292,1.67-.0361,3.333-.0088,1.6626-.0371,3.3321c0,.039-.0049.13-.0147.2714s-.0225.2979-.0361.4688c-.0157.1709-.0274.3271-.0371.4687s-.0147.2315-.0147.27v.41q0,1.172.0654,2.3145.0675,1.1426.0372,2.3144a.6362.6362,0,0,0,.2265.41,1.3532,1.3532,0,0,0,.4326.2275,2.02,2.02,0,0,0,.5127.0947q.2637.0147.4541.0147a.2137.2137,0,0,1,.1319.125.4533.4533,0,0,1,.0586.1387.26.26,0,0,1-.0508.1464.6657.6657,0,0,1-.125.1319c-.0489.039-.0977.0761-.1465.11s-.0879.0606-.1172.08a.3172.3172,0,0,1-.1465.0518,1.1083,1.1083,0,0,1-.1465.0214q-.4833.1319-.9521.2715t-.9668.27c-.1953.0586-.3838.1221-.5635.1905a1.6711,1.6711,0,0,1-.5937.1025.3848.3848,0,0,1-.3887-.2051,1.6,1.6,0,0,1-.1309-.4463c-.0254-.1611-.0468-.3105-.0664-.4472s-.0781-.2051-.1758-.2051a.8047.8047,0,0,0-.1679.0518c-.0938.0341-.1592.0556-.1983.0654a6.4856,6.4856,0,0,1-1.3037.85,3.321,3.321,0,0,1-1.48.3369,6.31,6.31,0,0,1-2.0068-.3076,3.6187,3.6187,0,0,1-1.6406-1.1719.5515.5515,0,0,1-.0293-.0732l-.044-.0879a.4027.4027,0,0,0-.0293-.0879l-.0586-.1465c-.0195-.0488-.039-.0947-.0586-.1387a.3369.3369,0,0,0-.0439-.081c0-.01-.0176-.02-.0508-.0293q-.0526-.0147-.1172-.0293c-.0449-.01-.084-.0166-.1172-.0215-.0351-.0049-.0566-.0078-.0664-.0078a1.4225,1.4225,0,0,1-.498-.5567,6.79,6.79,0,0,1-.4541-.9443,8.04,8.04,0,0,1-.3291-1.0185A3.37,3.37,0,0,1,145.4179,115.6537Zm5.3467,3.6182q.0732.0147.2783.0439t.4394.0586q.2344.0294.4541.0586t.3077.044h.1025a3.782,3.782,0,0,0,.7393-.0654,4.3872,4.3872,0,0,0,.7109-.2129.57.57,0,0,0,.1172-.0508.6077.6077,0,0,1,.1172-.0518c.039-.0586.0849-.1318.1386-.22a2.7228,2.7228,0,0,0,.1543-.293,2.8244,2.8244,0,0,0,.125-.3291,1.12,1.12,0,0,0,.0508-.3154v-.0147c0-.039-.0029-.0976-.0078-.1757s-.0117-.1612-.0215-.2491-.0195-.1709-.0293-.249a.965.965,0,0,0-.0293-.1611V112.68c0-.0586-.0029-.168-.0078-.3291s-.0117-.335-.0215-.52-.0195-.3613-.0293-.5273-.0146-.2833-.0146-.3516a.62.62,0,0,0-.0518-.2051.7036.7036,0,0,1-.0508-.1611.7705.7705,0,0,0-.2636-.293,1.8166,1.8166,0,0,0-.3369-.168c-.1172-.0439-.2344-.0859-.3516-.125a1.0369,1.0369,0,0,1-.3223-.1757,10.6743,10.6743,0,0,0-.9521-.5635,2.307,2.307,0,0,0-1.0694-.2276.8264.8264,0,0,0-.4033.11,2.2106,2.2106,0,0,0-.3808.27q-.1832.1611-.3584.3369a2.8756,2.8756,0,0,1-.3369.293.17.17,0,0,0-.044.0293c-.0195.02-.0293.0342-.0293.0439a6.297,6.297,0,0,0-.6592,1.0694q-.2782.5712-.5273,1.1279a1.3472,1.3472,0,0,0-.0586.14c-.02.0538-.0391.1045-.0586.1534a1.342,1.342,0,0,0-.0732.1757V114.79a2.2494,2.2494,0,0,1,.0947.5937,2.6043,2.6043,0,0,0,.0957.6221,4.0977,4.0977,0,0,0,.6592,1.502,7.5308,7.5308,0,0,0,1.1425,1.2226q.19.1611.3516.3223A.8366.8366,0,0,0,150.7646,119.2719Z" transform="translate(-6.996 -7.6892)"/>
    <path class="cls-1" d="M166.6435,118.0414a2.1939,2.1939,0,0,1,.2265-.9668,3.539,3.539,0,0,1,.5938-.8642,5.0083,5.0083,0,0,1,.8056-.7031,5.2892,5.2892,0,0,1,.8643-.4981.5277.5277,0,0,0,.0957-.0293,1.63,1.63,0,0,1,.168-.0508,1.68,1.68,0,0,0,.1679-.0517.4039.4039,0,0,1,.11-.0293.8067.8067,0,0,1,.0947-.0655c.0537-.0341.11-.0732.169-.1171s.1142-.086.1689-.125a.9258.9258,0,0,1,.1094-.0733,4.8135,4.8135,0,0,1,1.0762-.4756q.5946-.183,1.1357-.33a3.7118,3.7118,0,0,0,.4688-.2051.5883.5883,0,0,0,.249-.4541c0-.01.0049-.0459.0146-.1094s.02-.14.0293-.2275.02-.1778.0293-.2706.0147-.164.0147-.2128v-.1172c0-.0879-.0049-.2022-.0147-.3438s-.0195-.2783-.0293-.41-.02-.2471-.0293-.3448-.0146-.1513-.0146-.1611a1.9574,1.9574,0,0,0-.2422-.6514,2.1922,2.1922,0,0,0-.4609-.5566,2.3861,2.3861,0,0,0-.6153-.3887,1.7462,1.7462,0,0,0-.7031-.1465,2.9031,2.9031,0,0,0-.6231.0664,1.5062,1.5062,0,0,0-.5273.22,1.3513,1.3513,0,0,0-.3809.3955,1.4324,1.4324,0,0,0-.1972.5928q-.0294.2636-.0371.5419a.6193.6193,0,0,1-.2266.4688c-.0293.0293-.0732.0713-.1318.125s-.12.1045-.1826.1533c-.0645.0488-.12.0908-.169.125a.9958.9958,0,0,0-.0879.0654c-.0781.0586-.1826.1348-.3154.2276a.94.94,0,0,1-.2266.1387h-1.084c-.0195,0-.0507-.0362-.0957-.1094a1.542,1.542,0,0,0-.124-.1836c-.0586-.127-.1006-.2119-.124-.2559a.5828.5828,0,0,1-.0371-.2568v-.1025a2.7748,2.7748,0,0,1,.7109-1.0762,5.5851,5.5851,0,0,1,1.0322-.7695c.01,0,.0245-.0166.044-.0508s.0391-.0518.0586-.0518a6.5083,6.5083,0,0,1,1.626-1.04,4.7582,4.7582,0,0,1,2.4609-.3809q.2343.0292.4463.0733c.1416.0293.2861.0664.4326.11s.3174.0947.5127.1533a8.0339,8.0339,0,0,1,.7178.5713,2.9435,2.9435,0,0,1,.5127.6006,2.6149,2.6149,0,0,1,.3144.7178,3.3013,3.3013,0,0,1,.11.8935v.0586q-.1318,1.7579-.293,3.5381t-.1611,3.5225a1.861,1.861,0,0,0,.1758.8281,1.0469,1.0469,0,0,0,.6152.52h.1758a2.2752,2.2752,0,0,0,.5644-.0654,3.073,3.073,0,0,0,.4981-.1758c.16-.0732.3242-.1513.49-.2344s.3369-.164.5127-.2421v.1757a.7336.7336,0,0,1-.1826.5274c-.1231.1269-.252.2637-.3887.41l-.0732.0733a1.1616,1.1616,0,0,0-.1172.14c-.0391.0537-.0762.1026-.11.1465s-.0556.07-.0654.08a.5254.5254,0,0,1-.1982.1689c-.0723.0342-.1631.07-.2706.1094a6.5272,6.5272,0,0,1-.8134.2715,3.39,3.39,0,0,1-.8858.124h-.1465a.39.39,0,0,1-.1464-.0293q-.0734-.0146-.2344-.0586t-.3369-.1025q-.1758-.0587-.3223-.1172t-.2051-.0879a2.0237,2.0237,0,0,1-.19-.168c-.0977-.0927-.1611-.1543-.19-.1836a1.47,1.47,0,0,1-.1543-.2851c-.0635-.1416-.1309-.291-.2051-.4473-.0723-.1562-.1416-.2929-.2051-.41s-.1094-.1758-.1387-.1758a.3176.3176,0,0,0-.205.125,2.9145,2.9145,0,0,0-.2344.2851q-.1172.1612-.22.3223a.9381.9381,0,0,1-.1758.22q-.2784.2345-.5127.4327a3.5152,3.5152,0,0,1-.4834.3437,2.2708,2.2708,0,0,1-.5342.2275,2.4734,2.4734,0,0,1-.667.08c-.1367,0-.2568-.0019-.3584-.0068a1.6839,1.6839,0,0,1-.2861-.0371,1.4024,1.4024,0,0,1-.2637-.0879,2.3,2.3,0,0,1-.293-.1611,7.0138,7.0138,0,0,1-.9013-.5713,1.4146,1.4146,0,0,1-.5489-.8643,6.4627,6.4627,0,0,1-.1542-.63A3.1453,3.1453,0,0,1,166.6435,118.0414Zm2.0947-.6445a1.7643,1.7643,0,0,0,.0811.5273,1.69,1.69,0,0,0,.2265.4766,1.1728,1.1728,0,0,0,.3662.3438.9782.9782,0,0,0,.5127.1318c.2832,0,.5684-.01.8574-.0293a2.5085,2.5085,0,0,0,.8125-.19,2.0548,2.0548,0,0,0,.6153-.27q.2782-.1832.5713-.3448a7.7817,7.7817,0,0,0,.1025-.9521q.0147-.41.0147-.9229,0-.4687-.0147-.8564a5.5667,5.5667,0,0,0-.1025-.8428h-.1758a1.6254,1.6254,0,0,0-.4688.0664,3.565,3.565,0,0,0-.4326.1612c-.1416.0634-.2773.1289-.41.1972a4.5252,4.5252,0,0,1-.417.19,2.1865,2.1865,0,0,1-.3291.14,1.3724,1.3724,0,0,0-.33.168q-.22.1611-.4766.3808a4.0471,4.0471,0,0,0-.4756.4834,3.3816,3.3816,0,0,0-.374.55A1.245,1.245,0,0,0,168.7382,117.3969Z" transform="translate(-6.996 -7.6892)"/>
    <path class="cls-1" d="M178.6991,120.7953a.3672.3672,0,0,1,.2784-.373,3.1559,3.1559,0,0,1,.6523-.14c.248-.0293.498-.0654.7461-.1093a.93.93,0,0,0,.5644-.2862.9093.9093,0,0,1-.0293-.22v-.22a7.7342,7.7342,0,0,1,.1026-1.2451,7.9267,7.9267,0,0,0,.1025-1.2744v-.0733a.9092.9092,0,0,0-.0371-.124.41.41,0,0,0-.0654-.14V111.64a2.7652,2.7652,0,0,1-.1026-.7764v-.249a1.1512,1.1512,0,0,1,.0293-.249c-.0195-.0879-.1074-.1436-.2636-.168a2.7823,2.7823,0,0,0-.4248-.0371h-.1465a1.9808,1.9808,0,0,0-.63.1025,1.9781,1.9781,0,0,1-.63.1026.26.26,0,0,1-.2568-.1319.658.658,0,0,1-.0654-.293.3934.3934,0,0,1,.124-.3222.7492.7492,0,0,1,.3086-.1465,2.3723,2.3723,0,0,1,.3877-.0586,1.9187,1.9187,0,0,0,.3662-.0586,1.5747,1.5747,0,0,0,.8711-.5488,2.3058,2.3058,0,0,0,.4326-.9014,1.747,1.747,0,0,1-.0293-.3808V106.352a1.8431,1.8431,0,0,1,.0293-.3955q.0147-.1026.0732-.3955t.1319-.6075q.0732-.3149.1465-.6005a3.147,3.147,0,0,1,.1171-.3887.6315.6315,0,0,1-.0439-.249,1.0887,1.0887,0,0,1,.2266-.6592,3.9784,3.9784,0,0,0,.3593-.5713.2833.2833,0,0,0,.0371-.0879c.0137-.0488.0313-.1.0508-.1533s.0371-.1026.0508-.1465a.276.276,0,0,1,.0371-.0811l.1026-.1025c.0585-.0586.124-.124.1982-.1973.0723-.0732.1435-.1416.2119-.205a1.4505,1.4505,0,0,1,.1465-.125.4053.4053,0,0,1,.0732-.1387,1.1429,1.1429,0,0,1,.1026-.14,2.9361,2.9361,0,0,1,.4834-.4609,6.2185,6.2185,0,0,1,.623-.4248,6.6315,6.6315,0,0,1,.666-.3516,5.4724,5.4724,0,0,1,.6153-.2422h.2636q.8936-.1171,1.7725-.2412a12.832,12.832,0,0,1,1.8018-.125q.2929,0,.4687.0147a1.3007,1.3007,0,0,1,.3223.0664,1.2149,1.2149,0,0,1,.2851.1465c.0928.0635.2178.1435.3741.2412l.3876.2422a1.1028,1.1028,0,0,1,.2569.2119.6935.6935,0,0,1,.1465.2861,1.8272,1.8272,0,0,1,.0439.4463,1.3929,1.3929,0,0,1-.1025.52,1.4614,1.4614,0,0,1-.2862.4541,1.3627,1.3627,0,0,1-.4394.3145,1.3751,1.3751,0,0,1-1.2891-.0948,4.0128,4.0128,0,0,1-.6-.498c-.1914-.19-.3808-.3789-.5722-.5645a1.7893,1.7893,0,0,0-.6514-.41,1.34,1.34,0,0,0-.4033-.08c-.1309-.0049-.2657-.0078-.4024-.0078h-1.04q-.0147.0293-.1172.0586a.6631.6631,0,0,1-.1318.0293c-.1563.0488-.3125.1055-.4688.1689a2.71,2.71,0,0,0-.4316.22,1.651,1.651,0,0,0-.3516.2929.9058.9058,0,0,0-.2129.4024,1.7019,1.7019,0,0,0-.0664.2343c-.0244.1075-.0508.22-.08.337s-.0566.2324-.08.3447a1.1742,1.1742,0,0,1-.0665.2266c0,.0976-.0029.247-.0078.4472s-.01.43-.0136.6885q-.0088.3882-.0157.8125t-.0136.8135c-.0059.2588-.0127.49-.0225.6953s-.0146.3564-.0146.4541v1.7724a.2294.2294,0,0,0,.205.14,2.3913,2.3913,0,0,0,.3223.0215h.3223q.6446,0,1.2812-.044.6387-.0439,1.2676-.0439a.3651.3651,0,0,1,.3594.19.9494.9494,0,0,1,.0947.4248.7881.7881,0,0,1-.0361.1983q-.0381.1245-.0879.249a.9954.9954,0,0,1-.125.22c-.0489.0635-.0928.0947-.1319.0947H184.412a1.0352,1.0352,0,0,0-.3877.0957,3.6915,3.6915,0,0,0-.3593.168q0,.2051.0146.7256t.0147,1.12q0,.6006-.0147,1.1211t-.0146.7246c0,.02-.0049.0713-.0147.1543s-.0195.1758-.0293.2783-.02.1973-.0293.2852-.0146.1465-.0146.1758v.0439q0,.5127.0439,1.0108t.044,1.0107q0,.4688-.044.9307t-.0439.93q0,.3809.0146.6738t.0733.7178c.039.0878.1367.14.2929.1543s.3223.0293.4981.0439a2.9277,2.9277,0,0,1,.49.08.3364.3364,0,0,1,.2715.2636.1446.1446,0,0,1-.0215.11.839.839,0,0,1-.0879.124c-.0351.0391-.0664.0733-.0957.1026s-.0488.0439-.0586.0439h-.4248a10.7579,10.7579,0,0,1-1.1279-.0586,11.0739,11.0739,0,0,0-1.1572-.0586c-.4,0-.8038.0049-1.2081.0147a9.9787,9.9787,0,0,0-1.2089.1025.7265.7265,0,0,0-.0879.0147,1.49,1.49,0,0,1-.1543.0224,1.1922,1.1922,0,0,0-.1465.0215.5462.5462,0,0,1-.08.0147h-.0439a1.49,1.49,0,0,1-.41-.0586A.2813.2813,0,0,1,178.6991,120.7953Z" transform="translate(-6.996 -7.6892)"/>
    <path class="cls-1" d="M189.8173,115.7856q0-1.2452.0957-2.49.0938-1.245.0947-2.5341v-.3223a.516.516,0,0,0-.3-.2344c-.1426-.0488-.289-.0947-.4394-.1387a2.5746,2.5746,0,0,1-.3965-.1464.2787.2787,0,0,1-.168-.2715v-.1465l.1973-.1973c.0928-.0927.1953-.1933.3086-.3008q.1669-.1611.3066-.3c.0928-.0927.1592-.164.1983-.2128.0293-.01.0654-.0489.11-.1172a.3888.3888,0,0,0,.0654-.1319.26.26,0,0,0,.0655-.0508c.0244-.0244.042-.0371.0517-.0371q0-.0292.1172-.1025t.1611-.1025l.1319-.1758c.0586-.0781.1221-.1582.19-.2412s.1289-.1612.1836-.2344c.0527-.0732.09-.125.1094-.1543a1.11,1.11,0,0,0,.1387-.2412c.0634-.1319.1328-.2715.205-.418.0743-.1465.14-.28.1983-.4023a2.5566,2.5566,0,0,1,.1172-.2276c.0488-.0683.09-.124.124-.1679s.0664-.083.0957-.1172a.4474.4474,0,0,0,.0586-.0811,1.4914,1.4914,0,0,0,.0508-.1972c.0156-.0733.0322-.1416.0517-.2051a.3525.3525,0,0,1,.1026-.1612.2959.2959,0,0,1,.205-.0664.27.27,0,0,1,.2344.1319.9765.9765,0,0,1,.1319.3076,1.8184,1.8184,0,0,1,.0517.3447c.0039.1123.0068.1924.0068.2412a3.5449,3.5449,0,0,1-.0654.6817,3.3891,3.3891,0,0,0-.0664.6806,1.4535,1.4535,0,0,0,.0733.52.5331.5331,0,0,0,.22.2706.8387.8387,0,0,0,.3808.1025q.2345.0147.542.0146h.542a.52.52,0,0,1,.2852-.1679,1.5552,1.5552,0,0,1,.33-.0371h.7763a.3462.3462,0,0,0,.2569.1543c.1113.0146.2216.0293.3291.0439a.9912.9912,0,0,1,.2861.08.2622.2622,0,0,1,.124.2637v1.23c0,.0781-.0566.14-.1689.1836a1.9423,1.9423,0,0,1-.3877.1026c-.1465.0244-.2862.041-.417.0507-.1328.01-.2178.0147-.2569.0147h-.2343c-.0391,0-.1348-.0049-.2862-.0147s-.3144-.0214-.49-.0361-.34-.0273-.49-.0371c-.1524-.01-.2422-.0147-.2715-.0147h-.1026a.8653.8653,0,0,1-.0947-.0146c-.0547-.01-.1133-.0166-.1758-.0215a1.6731,1.6731,0,0,1-.1757-.0224.9567.9567,0,0,0-.0957-.0147h-.044a.4033.4033,0,0,0-.3076.125.9.9,0,0,0-.1836.3,1.9252,1.9252,0,0,0-.0947.3594,1.9635,1.9635,0,0,0-.0293.3q-.044.6006-.0733,1.0185t-.0293.9444q0,.293.0147.5127a3.9593,3.9593,0,0,0,.0879.5566v3.7647a1.649,1.649,0,0,0,.0361.1611,1.23,1.23,0,0,1,.0371.1758q.0292.0585.1026.1758t.1464.249q.0734.1318.1319.249a1.6907,1.6907,0,0,0,.0879.1611,1.2981,1.2981,0,0,0,.791.5791,4.78,4.78,0,0,0,.9814.0948,4.6129,4.6129,0,0,0,.586-.044,1.9725,1.9725,0,0,0,.5859-.1611,1.0661,1.0661,0,0,1,.14-.1026.3973.3973,0,0,1,.1386-.0732c0-.01.0215-.0146.0664-.0146h.0948a.5137.5137,0,0,1,.27.0664.2884.2884,0,0,1,.11.27.5648.5648,0,0,1-.1826.4326c-.123.1123-.2422.2217-.3594.3291a1.5548,1.5548,0,0,1-.6953.41,6.8774,6.8774,0,0,0-.7549.2344h-2.0215a1.4459,1.4459,0,0,1-.1757-.0293.7144.7144,0,0,1-.22-.0732q-.4248-.1611-.74-.2637a2.1268,2.1268,0,0,1-.6367-.3516,2.0983,2.0983,0,0,1-.586-.6884,3.6285,3.6285,0,0,1-.33-.8789,5.7971,5.7971,0,0,1-.1387-.9737q-.0292-.5053-.0293-.9746Z" transform="translate(-6.996 -7.6892)"/>
    <path class="cls-1" d="M198.4745,114.7016a.6364.6364,0,0,1-.1025-.2266,1.0593,1.0593,0,0,1-.0293-.2422,1.4066,1.4066,0,0,1,.0146-.2119,1.125,1.125,0,0,0,.0147-.1689v-.4541a.7643.7643,0,0,1,.0293-.1387c.02-.0732.0439-.1543.0732-.2422s.0586-.1728.0879-.2558a1.7339,1.7339,0,0,1,.0733-.1836.3847.3847,0,0,1,.0878-.1387.5622.5622,0,0,0,.0879-.125,3.29,3.29,0,0,0,.1319-.6738,1.1933,1.1933,0,0,1,.2344-.6153c.02-.0195.0556-.0605.11-.124q.079-.0953.1758-.2051c.0625-.0732.1211-.14.1758-.1982a.5371.5371,0,0,1,.1093-.1026,1.1977,1.1977,0,0,0,.0879-.1972.6911.6911,0,0,1,.0879-.1836.72.72,0,0,1,.3008-.2559,1.6984,1.6984,0,0,0,.3291-.2129,3.9352,3.9352,0,0,0,.374-.3291q.1817-.183.3653-.3662a4.2356,4.2356,0,0,1,.3808-.3369,1.6567,1.6567,0,0,1,.4326-.2422,5.3017,5.3017,0,0,1,.7032-.19,3.587,3.587,0,0,1,.7031-.0732q.44,0,.9668.0146a7.4512,7.4512,0,0,1,.9082.0732,3.2659,3.2659,0,0,1,.7031.22,7.19,7.19,0,0,1,.8428.4179,7.1163,7.1163,0,0,1,.7685.5127,2.3921,2.3921,0,0,1,.5127.5049q.1466.22.337.5127a6.9277,6.9277,0,0,1,.3583.6231,6.0488,6.0488,0,0,1,.2862.6445,1.67,1.67,0,0,1,.1172.5781.707.707,0,0,1-.3662.6445c-.0684,0-.1934.0049-.3731.0147-.1816.01-.374.0225-.5791.0371s-.4.0264-.5859.0361-.3125.0147-.3809.0147h-1.0986a12.3144,12.3144,0,0,1-1.3623-.0733q-.6592-.0732-1.3477-.1025h-.7471a.8816.8816,0,0,1-.1757-.0508.7941.7941,0,0,0-.19-.0517c-.039-.01-.1054-.0215-.1982-.0362s-.1924-.0322-.3-.0517-.21-.0362-.3076-.0508-.166-.0273-.2051-.0371a.5953.5953,0,0,0-.2422.14,1.2945,1.2945,0,0,0-.1973.2119,1.0246,1.0246,0,0,0-.0293.169q-.0146.1245-.0293.2783t-.0292.293c-.01.0928-.0147.1582-.0147.1972v.0733a.372.372,0,0,0,.0439.0879q.0294.1024.0586.1025a.385.385,0,0,0,.0879.14.3849.3849,0,0,1,.0879.1386.1841.1841,0,0,0-.0439.0733l-.0293.0879v.2343a.9838.9838,0,0,0,.0517.3448c.0332.0927.0752.2119.1241.3584a7.0905,7.0905,0,0,0,.3955,1.1133,7.35,7.35,0,0,0,.6006,1.0546.5169.5169,0,0,0,.2412.2344,2.7124,2.7124,0,0,1,.3007.1319.7246.7246,0,0,0,.1387.0878.6816.6816,0,0,1,.14.0879,4.4661,4.4661,0,0,0,1.23.7471,3.79,3.79,0,0,0,1.4209.2637.5731.5731,0,0,0,.22-.0362c.0586-.0244.1142-.0517.1689-.081.0527-.0293.1045-.0586.1533-.0879a.7333.7333,0,0,1,.1758-.0732h.4395a2.06,2.06,0,0,0,.4541-.1094q.22-.0806.4316-.1612t.4326-.1464a1.5706,1.5706,0,0,1,.4541-.0664,1.1716,1.1716,0,0,1-.0078.1543.2835.2835,0,0,1-.0293.0947.6378.6378,0,0,1-.0586.0957c-.0244.0342-.0556.08-.0947.1387a3.8358,3.8358,0,0,1-.417.5644,3.0332,3.0332,0,0,1-.418.3731,3.6911,3.6911,0,0,1-.49.3007c-.1816.0928-.3887.1973-.623.3145a1.0154,1.0154,0,0,0-.1612.11,1.2857,1.2857,0,0,1-.124.0948q-.0673.044-.1465.0879a1.3752,1.3752,0,0,1-.2129.0878.6926.6926,0,0,1-.1611.0147.9739.9739,0,0,0-.2051.0225.7446.7446,0,0,0-.1982.0732.3044.3044,0,0,0-.1387.1533H203.88a7.5347,7.5347,0,0,1-1.75-.19,3.9779,3.9779,0,0,1-1.5752-.82,4.1434,4.1434,0,0,1-1.0771-1.26,7.9762,7.9762,0,0,1-.6661-1.5674.1841.1841,0,0,1-.0439-.0732.4666.4666,0,0,1-.0293-.1318,1.0676,1.0676,0,0,1-.0879-.2051c-.0293-.0879-.0566-.1758-.081-.2637s-.0459-.1631-.0655-.2266a.736.736,0,0,1-.0293-.11,1.1068,1.1068,0,0,1-.0439-.2852c-.01-.1416-.0147-.2861-.0147-.4326s.0049-.2881.0147-.4248A1.0784,1.0784,0,0,1,198.4745,114.7016Zm2.7246-3.1348a.1339.1339,0,0,0,.1026.1026.9473.9473,0,0,0,.1318.0293q.0879.0145.19.0293t.1905.0293a.9067.9067,0,0,0,.1172.0146h3.8232a.968.968,0,0,0,.49-.1387.4635.4635,0,0,0,.2422-.4326,2.4133,2.4133,0,0,0-.125-.7685,2.9338,2.9338,0,0,0-.3437-.7032,2.8573,2.8573,0,0,0-.52-.5859,2.47,2.47,0,0,0-.6523-.4033.7659.7659,0,0,1-.249-.168.3624.3624,0,0,0-.2783-.0957,2.5161,2.5161,0,0,0-1.0333.249,4.3879,4.3879,0,0,0-1.0175.6446,3.92,3.92,0,0,0-.7832.8867,1.7853,1.7853,0,0,0-.3155.9736,1.7469,1.7469,0,0,0,.0147.1836C201.1943,111.4965,201.1991,111.5473,201.1991,111.5668Z" transform="translate(-6.996 -7.6892)"/>
    <path class="cls-1" d="M210.4569,120.7074a.515.515,0,0,1,.1172-.3437.9255.9255,0,0,1,.2862-.2275,1.29,1.29,0,0,1,.3584-.1241c.1269-.0244.2441-.042.3515-.0517h.835a.4614.4614,0,0,0,.2344-.2266,1.1165,1.1165,0,0,0,.0957-.3447,3.6324,3.6324,0,0,0,.0215-.3877c0-.1318.0048-.2471.0146-.3447a.1593.1593,0,0,0,.0293-.0586l.0293-.0586a.2291.2291,0,0,1,.0439-.0586.2779.2779,0,0,0,.0508-.1318.768.768,0,0,0,.0225-.1319v-3.8379a.7505.7505,0,0,1,.0517-.19.9673.9673,0,0,0,.0508-.1758v-.0586a1.9836,1.9836,0,0,0-.0508-.4394,2.0083,2.0083,0,0,1-.0517-.4688,2.725,2.725,0,0,1,.0517-.5488,2.803,2.803,0,0,0,.0508-.5352v-.1465c0-.0585-.0049-.1386-.0146-.2412s-.0225-.21-.0362-.3222c-.0156-.1123-.0273-.21-.0371-.293s-.0146-.1348-.0146-.1543a.4906.4906,0,0,0-.3955-.41,5.5878,5.5878,0,0,0-.7539-.1611q-.4044-.0585-.7325-.1387c-.2207-.0537-.33-.1689-.33-.3447q0-.19.3076-.3437a4.3063,4.3063,0,0,1,.7031-.2715q.3955-.1171.7764-.2051a4.1382,4.1382,0,0,0,.5273-.1465q.0294-.0146.1319-.0732t.22-.1172c.0781-.0391.1543-.0752.2265-.1094.0743-.0342.125-.0566.1543-.0664a.7432.7432,0,0,0,.1094-.0293c.0635-.0195.1328-.041.2051-.0654.0742-.0244.1416-.0469.2051-.0664a.562.562,0,0,1,.125-.0293q.1318-.044.2051-.0733l.1464-.0586a.3332.3332,0,0,0,.0879-.0439h.1026a1.4912,1.4912,0,0,1,.417.2275.62.62,0,0,1,.125.461,1.8991,1.8991,0,0,1-.0372.374,1.7532,1.7532,0,0,0-.0361.3437v.2637a1.4947,1.4947,0,0,0,.0361.3447.4749.4749,0,0,0,.1983.2706h.0732a.5823.5823,0,0,0,.3594-.1465,3.0049,3.0049,0,0,0,.3584-.3438c.1172-.1318.2275-.2637.3291-.3955a3.6217,3.6217,0,0,1,.2715-.3154,5.4735,5.4735,0,0,1,.7617-.5127q.3955-.22.8057-.4981a.2738.2738,0,0,0,.1465.0293,1.7107,1.7107,0,0,0,.3808-.0507,1.7142,1.7142,0,0,1,.3809-.0518,1.8893,1.8893,0,0,1,.4834.0664,1.397,1.397,0,0,1,.4472.2051,1.164,1.164,0,0,1,.3223.3437.8944.8944,0,0,1,.124.4688v.19c-.0293.2051-.0517.4033-.0654.5938a1.74,1.74,0,0,1-.11.5048.7343.7343,0,0,1-.293.3516,1.1522,1.1522,0,0,1-.6153.1318h-.1171c-.0293-.01-.0733-.0214-.1319-.0361s-.1172-.0273-.1758-.0371-.1093-.0166-.1543-.0215c-.0429-.0049-.07-.0078-.08-.0078-.01-.01-.0323-.0293-.0664-.0586s-.07-.06-.1094-.0947-.0762-.0664-.1094-.0957c-.0351-.0293-.0566-.044-.0664-.044H218.06c-.01,0-.044-.0048-.1026-.0146s-.124-.0166-.1982-.0215c-.0723-.0049-.1416-.0127-.2051-.0225s-.1-.0146-.1093-.0146h-.0879a3.0762,3.0762,0,0,0-.49.0439,2.3689,2.3689,0,0,0-.5351.1543,1.8617,1.8617,0,0,0-.4688.2784.7544.7544,0,0,0-.2637.4316q.0294,1.5528-.0292,3.0908t-.0586,3.0908c0,.0879-.0049.2032-.0147.3448s-.0146.2949-.0146.4609.0078.3369.0214.5127a3.0551,3.0551,0,0,0,.0811.4912,1.3012,1.3012,0,0,0,.1689.3955.5325.5325,0,0,0,.3.2266c.039,0,.11-.0049.2119-.0147.1035-.01.2177-.0146.3447-.0146s.2392.0049.3369.0146.166.0147.2051.0147a.8119.8119,0,0,1,.41.1543.41.41,0,0,1,.1612.3437.82.82,0,0,1-.044.3076.2479.2479,0,0,1-.1318.14.6538.6538,0,0,1-.2119.0439c-.084.0049-.1739.0118-.2715.0215a.4086.4086,0,0,0-.1025.0586.7347.7347,0,0,1-.0733.044h-.0586q-.5859,0-1.289-.044a11.0723,11.0723,0,0,1-1.3331-.1611h-.0292a.7633.7633,0,0,0-.2784.0517.7218.7218,0,0,1-.2636.0508.5692.5692,0,0,1-.2422-.0508.5279.5279,0,0,0-.2266-.0517h-.0439a4.8526,4.8526,0,0,1-.8428.1611,8.4566,8.4566,0,0,1-.8565.044h-.205a2.3039,2.3039,0,0,1-.4981-.0586A.2936.2936,0,0,1,210.4569,120.7074Z" transform="translate(-6.996 -7.6892)"/>
  </g>
  <g>
    <path class="cls-1" d="M7.0105,62.5324a1.69,1.69,0,0,1,.3486-.6492,2.3688,2.3688,0,0,1,.5068-.4961q.066-.0009.5-.0595a2.0339,2.0339,0,0,0,.5828-.1346,9.1917,9.1917,0,0,0,1.5861-.6717q.7438-.4024,1.5561-.8234.7948-.3451,1.3591-.5381a5.9413,5.9413,0,0,0,1.0326-.46,4.9347,4.9347,0,0,0,.95-.7276,8.7008,8.7008,0,0,0,1.0709-1.2988,4.4583,4.4583,0,0,0,.5756-1.2591q.23-.764.3942-1.1827a.9612.9612,0,0,1,.1637-.2106.9634.9634,0,0,0,.1637-.2106c.0453-.101.1166-.2417.213-.42a2.06,2.06,0,0,0,.163-.343c.0054-.0252.0321-.1151.08-.2669s.0995-.3056.1576-.4585.1145-.2991.169-.4387.0858-.2228.0913-.248a2.3777,2.3777,0,0,1,.1432-.1909c.0334-.0513.0687-.1083.1049-.1717s.0724-.1207.1058-.172q.2859-.3807.6745-.9935c.2581-.4066.5179-.84.7777-1.2973.2606-.4594.5054-.8974.7354-1.3186.229-.4188.4133-.7828.55-1.087a25.3238,25.3238,0,0,1,1.144-2.2906q.6455-1.1455,1.21-2.2908.3118-.7637.65-1.6416c.2252-.5849.4526-1.1307.682-1.6414a4.3832,4.3832,0,0,0,.3358-.5911q.2418-.477.3439-.63a4.3932,4.3932,0,0,1,.3137-.3628,1.4274,1.4274,0,0,0,.28-.3625.6137.6137,0,0,0,.0991-.2107c.0377-.1138.0848-.2418.1392-.3814s.1016-.2675.1393-.3814.06-.184.0663-.2095a4.6637,4.6637,0,0,0,.26-.4774c.1046-.2165.2037-.4261.2952-.63s.173-.3869.2452-.5534.1109-.26.1164-.2854a2.1356,2.1356,0,0,1,.166-.2869c.104-.1653.2117-.344.3211-.5345s.2125-.3687.3061-.5349.1568-.2727.19-.324a2.6355,2.6355,0,0,0,.3129-.4972q.2281-.4191.4727-.8974.2418-.4768.46-.9159a3.8819,3.8819,0,0,0,.2451-.5523c.1466-.2552.318-.5856.5115-.9932s.4066-.8215.6356-1.24a12.22,12.22,0,0,1,.7352-1.185,3.3064,3.3064,0,0,1,.7795-.8216,11.9531,11.9531,0,0,1,.8525-1.8123q.4953-.86,1.0153-1.68.5181-.8208.9666-1.681a7.8036,7.8036,0,0,0,.6745-1.8124,2.96,2.96,0,0,0,.0893-1.259,2.4791,2.4791,0,0,0-.2769-.7419c-.1172-.1905-.2241-.374-.3226-.5521a1.0041,1.0041,0,0,1-.0379-.7243,1.7469,1.7469,0,0,1,.0914-.2481,1.86,1.86,0,0,0,.0913-.248,7.0863,7.0863,0,0,1,1.1643-.5368q.6381-.23,1.273-.5181a5.7687,5.7687,0,0,0,1.1941-.7268,3.11,3.11,0,0,0,.8845-1.128c.0325-.05.1095-.19.229-.42s.2419-.4708.3669-.7253.2482-.4963.3668-.7254.1965-.3688.23-.42a2.7093,2.7093,0,0,1,.4392-.6869.8234.8234,0,0,1,.6164-.345.051.051,0,0,1,.0441.0187.0457.0457,0,0,0,.0441.0188h.0647a1.3422,1.3422,0,0,1,.1841.2469q.105.172.2381.3615a3.4491,3.4491,0,0,1,.2223.3624,1.1356,1.1356,0,0,1,.1026.2472c.0431.0007.0726.0821.0866.247a1.2978,1.2978,0,0,1-.0145.4013,4.3122,4.3122,0,0,0-.0563.6479q-.021.4962-.0558,1.0486c-.0223.368-.0409.7185-.055,1.0483a4.6862,4.6862,0,0,1-.048.6106c-.0032.101.0048.3432.0219.7243s.0354.7812.0547,1.2.0384.8129.0592,1.1816a3.262,3.262,0,0,1-.0063.7057q.0014,1.22-.0421,2.63-.0453,1.4124-.0112,2.63a1.1544,1.1544,0,0,0,.022.248c.02.14.05.2924.086.4574s.0749.318.1179.4574a1.6849,1.6849,0,0,0,.0866.2481,5.2038,5.2038,0,0,1-.0595,1.5433,5.6841,5.6841,0,0,0-.0688,1.5829q.077,2.4.2224,4.65t.124,4.6509c.0033.0765-.0015.2289-.0124.4577s-.0272.4767-.0472.7441-.0364.5142-.0473.743a3.3888,3.3888,0,0,1-.0351.42c.0087.0513.0272.1587.0525.3241s.0553.3365.0881.5138.0592.3434.0769.4948a1.41,1.41,0,0,1,.0174.2678,3.1653,3.1653,0,0,0-.044.3239c-.0187.166-.0393.3428-.0625.5337s-.0448.3689-.0626.5336a3.0451,3.0451,0,0,1-.045.3242c-.0031.102-.0084.331-.0176.6868s-.0117.7308-.0076,1.1241c.0022.395.0053.7693.0073,1.1246s.0015.5848-.0017.6868q-.0053,1.5252.11,3.0114a26.7387,26.7387,0,0,1,.05,3.1263q-.0858,1.45-.1648,2.8022a16.7028,16.7028,0,0,0,.0566,2.6877q.058.5721.0623,1.2388a3.0679,3.0679,0,0,0,.1854,1.1235,2.1849,2.1849,0,0,0,.6749,1.0469,3.7132,3.7132,0,0,0,1.0491.6263,5.5241,5.5241,0,0,0,1.22.3206q.6413.0933,1.184.13a.6592.6592,0,0,1,.4587.59,3.2382,3.2382,0,0,1-.1.8962.4311.4311,0,0,1-.0378.0955.5864.5864,0,0,0-.0489.1337.8478.8478,0,0,0-.0776.1907l-.4847.2678-1.0371.0033-1.4268.0036a.7507.7507,0,0,1-.2762-.1323.9771.9771,0,0,0-.2444-.1321h-.162a3.7673,3.7673,0,0,0-1.0045.1358,3.8816,3.8816,0,0,1-1.0364.1355,6.1521,6.1521,0,0,1-1.2814-.1288,6.2955,6.2955,0,0,0-1.3133-.13,1.99,1.99,0,0,0-.7131.1358,2.0223,2.0223,0,0,1-.7122.1345,10.5873,10.5873,0,0,1-1.703-.1287,11.0877,11.0877,0,0,0-1.7676-.1287,15.4682,15.4682,0,0,0-2.8025.2746,15.9363,15.9363,0,0,1-2.9008.2749l-.9725.0023a1.8506,1.8506,0,0,1-.292-.61,1.5,1.5,0,0,1,.0031-.7617,1.1423,1.1423,0,0,1,.6515-.7639,5.2358,5.2358,0,0,1,1.2838-.4237c.4988-.1019,1.0539-.1869,1.6634-.2514s1.2068-.1495,1.7936-.2526a8.3492,8.3492,0,0,0,1.6491-.4621,3.3144,3.3144,0,0,0,1.2524-.8421l.1912-.8015.19-.8a.8616.8616,0,0,1-.0128-.2866c.0074-.1655.0148-.3555.0229-.5722s.0135-.4193.0153-.6095.0073-.3491.016-.4762c-.0087-.0513-.0226-.1775-.0378-.3817-.0171-.2027-.0343-.4257-.0525-.6667s-.0308-.4635-.0357-.668a1.9506,1.9506,0,0,1,.01-.38c-.0042-.0762-.0023-.242.0047-.4961s.0129-.5333.0214-.8389.0107-.5907.0092-.8574a2.877,2.877,0,0,1,.0261-.5151,1.2291,1.2291,0,0,1-.0329-.3425c-.0049-.2044-.0165-.4251-.0347-.6682-.0192-.2408-.03-.4689-.0311-.6857a3.7212,3.7212,0,0,0-.0182-.4c.0012-.28.0171-.6152.0457-1.01s.0433-.7947.0428-1.2015a7.3954,7.3954,0,0,0-.0766-1.1058,1.2449,1.2449,0,0,0-.3142-.723l-1.394.0035-1.4269.0046a1.3752,1.3752,0,0,0-.3561.1346,1.4168,1.4168,0,0,1-.3553.1343l-.0655,0-.0965,0a1.662,1.662,0,0,1-.2017-.0375c-.1135-.0244-.2355-.0563-.3668-.0935-.1314-.0392-.2534-.07-.366-.0949a1.8038,1.8038,0,0,0-.2016-.0385,1.8653,1.8653,0,0,0-.204.04c-.1142.0257-.23.0572-.347.096s-.2787.0837-.4855.1345l-3.7287.01c-.0861.0006-.2332.0061-.442.0209-.2089.0127-.4346.0328-.678.0584s-.4719.0528-.6825.0783a3.4509,3.4509,0,0,0-.4558.0772.5172.5172,0,0,0-.1158.0762.28.28,0,0,0-.1.0773.0691.0691,0,0,1-.0569.0373q-1.2214,2.4054-2.4107,4.8871t-2.3216,4.9243a13.1962,13.1962,0,0,1-.6821,1.2977,4.8389,4.8389,0,0,0-.56,1.3359,2.3429,2.3429,0,0,0-.0252.991c.0618.33.1263.6231.1961.8764a3.82,3.82,0,0,1,.3806.0362c.1875.0266.3853.0571.5926.0949s.4042.0685.5936.0935a3.5039,3.5039,0,0,0,.38.0375.8127.8127,0,0,1,.1925.0751c.1062.0512.2245.1006.3522.1522s.2479.0943.3577.1321a1.0517,1.0517,0,0,0,.1971.0563,4.3565,4.3565,0,0,0,.8552.1508,3.6479,3.6479,0,0,1,.8225.15.9937.9937,0,0,1,.5532.3989,1.149,1.149,0,0,1,.0463.8961Q24.22,63.325,23.76,63.5539a2.6235,2.6235,0,0,1-1.1726.2325l-.4215.0012-1.2966.0034a1.76,1.76,0,0,1-.2663-.0375c-.1351-.0248-.2739-.0556-.4156-.0946-.1426-.0367-.28-.0687-.4146-.0938a1.8677,1.8677,0,0,0-.2663-.0375l-3.8261.0105a1.8677,1.8677,0,0,1-.2663-.0375c-.135-.0248-.2776-.0564-.4315-.0936s-.2964-.07-.4305-.0949a1.8924,1.8924,0,0,0-.2673-.0362l-.5508.0011a3.3639,3.3639,0,0,0-.5282.04,2.15,2.15,0,0,0-.6048.23l-3.4045.0093c-.0991.0506-.22.1079-.3644.1719a1.0088,1.0088,0,0,1-.2824.097H8.3876a1.0237,1.0237,0,0,1-.41-.1136,2.774,2.774,0,0,1-.4841-.2841,1.4586,1.4586,0,0,1-.3856-.419A.6158.6158,0,0,1,7.0105,62.5324ZM27.7764,41.6047c.5576.09,1.1637.1618,1.8174.2116s1.3165.0833,1.99.0949,1.3367.0183,1.992.0175,1.2608-.0065,1.8225-.0181l.6468-.0122a2.0067,2.0067,0,0,0,.8494-.1883,1.2123,1.2123,0,0,0,.5266-.8709,3.555,3.555,0,0,0,.0452-1.4913,9.4031,9.4031,0,0,1-.1573-1.4493q-.0129-1.4511.0337-2.9434a21.6316,21.6316,0,0,0-.0909-2.8251,1.6884,1.6884,0,0,0-.0814-.4768c-.0661-.2663-.1044-.4242-.1131-.4755a4.35,4.35,0,0,1,.0271-.4589q.033-.3438.0683-.766t.0674-.7657a4.426,4.426,0,0,0,.0281-.4582,2.0509,2.0509,0,0,0-.0207-.3243c-.0189-.191-.0492-.4069-.089-.6482s-.073-.4888-.0979-.7433c-.0268-.2538-.043-.458-.05-.6112q-.0565-.3032-.0814-.4758c-.0165-.1141-.0349-.2153-.0569-.3041a.4727.4727,0,0,1-.0235-.1721,2.4033,2.4033,0,0,1-.0457-.7627c.0226-.28.0368-.5491.0447-.8042a4.4667,4.4667,0,0,0-.039-.7251,1.0278,1.0278,0,0,0-.252-.5682l-.1617.0038c-.3028.006-.6244.3054-.9686.8977a19.77,19.77,0,0,0-1.0039,2.0074q-.4883,1.1182-.8824,2.1764t-.5729,1.4067q-.1191.2314-.3748.7712a4.7257,4.7257,0,0,1-.3475.6567q-.7458,1.6581-1.5336,3.2985-.7908,1.6407-1.4692,3.2963c-.0054.0254-.0338.1217-.0833.2875-.05.1681-.1091.3472-.1753.539s-.13.3717-.1911.5391-.0975.2758-.1093.3268a2.2335,2.2335,0,0,1-.3187.4652c-.1.104-.195.2143-.2878.33a2.8607,2.8607,0,0,0-.2519.3876,2.2945,2.2945,0,0,0-.1957.5581l-.0629.2684a1.768,1.768,0,0,0-.0577.5171C27.4988,41.4641,27.5947,41.5569,27.7764,41.6047Z" transform="translate(-6.996 -7.6892)"/>
    <g>
      <path class="cls-1" d="M49.9145,34.7431c-.045,0-.12-.0034-.2246-.0112a2.583,2.583,0,0,1-.3257-.045.8311.8311,0,0,1-.3032-.1235.2636.2636,0,0,1-.1348-.2246.5155.5155,0,0,1,.3594-.46,3.8917,3.8917,0,0,1,.82-.27q.46-.1011.8647-.1909a.8322.8322,0,0,0,.4942-.2246A.434.434,0,0,1,51.52,33.07a.4471.4471,0,0,0,.0562-.1236q.0219-.0673.0674-.2358c.03-.1123.0595-.228.09-.3482s.06-.2319.09-.3369a.9581.9581,0,0,0,.045-.2246,4.1832,4.1832,0,0,0,.0561-.438q.0337-.3478.0786-.7524t.09-.7525q.0447-.3478.0449-.4379.0673-.2242.1909-.55a1.654,1.654,0,0,0,.1236-.5728,2.349,2.349,0,0,0-.1236-.6851q-.1238-.3925-.1909-.6626V24.456q0-1.5718.0786-3.1221t.0786-3.1445c0-.2246-.0078-.4077-.0224-.55a5.4847,5.4847,0,0,0-.1348-.6626,1.7059,1.7059,0,0,1-.0786-.2583q-.0337-.1458-.0786-.2808a2.1855,2.1855,0,0,1-.1123-.3369H49.9145q-.18,0-.3706-.27a.8415.8415,0,0,1-.191-.4492.5585.5585,0,0,1,.2808-.4942,2.3457,2.3457,0,0,1,.6514-.2807,4.2888,4.2888,0,0,1,.7412-.1348c.2471-.0225.43-.0337.55-.0337h.1572a1.75,1.75,0,0,0,.1685.0674c.082.03.1684.064.2583.1011s.1757.0713.2583.101a.6.6,0,0,0,.1684.045h1.1006c.03,0,.1045.0078.2246.0224s.2544.0264.4043.0337.2881.0191.4155.0337.2056.0225.2359.0225h.1123a8.6124,8.6124,0,0,1,1.5722-.2359q.7186-.0336,1.64-.0337h1.8193q.3816.0675.9209.191a2.8664,2.8664,0,0,1,.9209.3706q.359.2694.73.4941a4.6108,4.6108,0,0,1,.6738.4941,2.8514,2.8514,0,0,1,.5166.6065,2.3053,2.3053,0,0,1,.3033.7861,4.5994,4.5994,0,0,1,.1123.4717q.0674.3369.1347.6963t.1123.6626c.03.2021.0523.3335.0674.393v.2022a5.8084,5.8084,0,0,1-.5278,2.3921,5.2826,5.2826,0,0,1-1.4487,1.9429,1.5523,1.5523,0,0,1-.6514.2807,3.12,3.12,0,0,0-.7412.2359c-.03,0-.1011.0673-.2134.2021a1.202,1.202,0,0,0-.1909.27.5343.5343,0,0,0-.146.0337.72.72,0,0,0-.1685.0786q-.09.0228-.3144.0787t-.4942.1235q-.27.0673-.5166.1235t-.3369.0786h-.1123a5.38,5.38,0,0,1-1.2466-.146,5.4179,5.4179,0,0,0-1.2465-.146.62.62,0,0,0-.4043.1124.6047.6047,0,0,0-.191.3032,1.7714,1.7714,0,0,0-.0673.4155,3.1387,3.1387,0,0,1-.0562.4492c-.03,0-.0488.0225-.0562.0674a.98.98,0,0,1-.0336.1348l-.045.18V27.96q0,.36.0113.8535t.0224,1.0444q.0111.5508.0337,1.0445t.0337.8535a3.5613,3.5613,0,0,0,.0337.4717c0,.0151-.0039.0674-.0112.1572s-.0113.1724-.0113.2471q0,.1574.0225.1572a.667.667,0,0,0,.3032.438,1.73,1.73,0,0,0,.5279.2134,5.0392,5.0392,0,0,0,.6176.101,5.478,5.478,0,0,1,.584.09,1.0372,1.0372,0,0,1,.438.2021.5059.5059,0,0,1,.18.4156.4387.4387,0,0,1-.18.4043q-.18.1127-.4268.247h-1.46c-.0449,0-.1314-.0073-.2583-.0224s-.2622-.0337-.4043-.0562-.2734-.041-.3931-.0561-.1948-.0225-.2246-.0225ZM55.53,20.2558V20.48q0,.2475.0112.6963t.0337.8984q.0221.45.0449.7974c.0147.2324.0225.3706.0225.4155q.0221.2476.0449.5054a1.9864,1.9864,0,0,0,.09.46.7533.7533,0,0,0,.2021.3257.6175.6175,0,0,0,.4268.1236,3.9933,3.9933,0,0,0,.9546-.146,9.6224,9.6224,0,0,0,1.1679-.3819,8.094,8.094,0,0,0,1.1119-.539,2.7033,2.7033,0,0,0,.7636-.6177,12.0983,12.0983,0,0,0,.6065-1.6509,6.1539,6.1539,0,0,0,.2246-1.6733v-.3369a3.8358,3.8358,0,0,0-1.5274-2.7291,5.686,5.686,0,0,0-3.1445-.7749.8082.8082,0,0,0-.4829.1236.7943.7943,0,0,0-.2583.3257,1.6407,1.6407,0,0,0-.1235.4492q-.0337.2475-.0562.5166c0,.0449-.0078.1836-.0225.4155s-.03.4981-.0449.7974-.0263.5991-.0337.8984-.0112.5318-.0112.6963Z" transform="translate(-6.996 -7.6892)"/>
      <path class="cls-1" d="M74.2172,34.7431H68.8715a2.1066,2.1066,0,0,1-.4717.1348,3.944,3.944,0,0,1-.4717.0224,1.4414,1.4414,0,0,1-.6626-.18.6271.6271,0,0,1-.3481-.6064q0-.5164.3257-.6065a3.278,3.278,0,0,1,.7749-.101,3.6811,3.6811,0,0,0,.9209-.146,1.2706,1.2706,0,0,0,.7637-.7412q.0445-.0894.101-.2359a.9773.9773,0,0,0,.0562-.1684q0-.0894.0224-.3706t.045-.5953q.0219-.3141.0449-.6064c.0146-.1943.0224-.3291.0224-.4043q.0221-.3143.0337-1.0444t.0337-1.55q.0221-.82.0337-1.5386t.0112-.9883a.7283.7283,0,0,0,.1124-.3481c.03-.187.0449-.2954.0449-.3257v-.876a2.6736,2.6736,0,0,0,.0449-.3257q.0219-.2358.0449-.5054t.0449-.5053c.0147-.1572.0225-.2656.0225-.3257a1.1256,1.1256,0,0,1,.0225-.1685q.0219-.123.0449-.27c.0146-.0972.03-.187.0449-.27a1.1812,1.1812,0,0,0,.0225-.1685.861.861,0,0,0-.0562-.2021q-.0564-.1567-.0786-.2022,0-.1794.0112-.6738t.0113-1.0332q0-.5391-.0113-1.0108t-.0112-.6513a1.2639,1.2639,0,0,0-.3818-.9883,2.4676,2.4676,0,0,0-.8311-.438q-.4716-.1458-.9658-.3257a1.4138,1.4138,0,0,1-.7637-.6513v-.1123a.7787.7787,0,0,1,.2471-.6065h.584a2.58,2.58,0,0,1,.8423.1348,2.5775,2.5775,0,0,0,.8422.1347.78.78,0,0,0,.2247.0225h.3818q.4263,0,.91-.0112t.5727-.0113a1.19,1.19,0,0,1,.3032.0674,1.3905,1.3905,0,0,0,.2583.0674c.0147,0,.0635.0039.146.0112s.1719.0113.27.0113.1943.0039.292.0112.1757.0112.2358.0112a7.6034,7.6034,0,0,0,1.8306-.2246,7.6246,7.6246,0,0,1,1.8305-.2246.9792.9792,0,0,1,.4717.09q.1567.09.1572.4716a.76.76,0,0,1-.2133.5952,1.2247,1.2247,0,0,1-.55.27,6.2311,6.2311,0,0,1-.7525.1235,6.8915,6.8915,0,0,0-.8423.146,2.9555,2.9555,0,0,0-.7973.3145,1.6616,1.6616,0,0,0-.6177.6626c0,.06-.0078.165-.0225.3144s-.03.311-.0449.4829-.03.3335-.0449.4829-.0225.2549-.0225.3145v1.9541a.8108.8108,0,0,0-.0449.2021c-.0151.105-.03.2212-.0449.3482s-.03.2471-.0449.3594a2.0435,2.0435,0,0,0-.0225.2358c-.03.0151-.0449.0977-.0449.2471v.3369a1.1365,1.1365,0,0,0,.5166,1.0556,2.326,2.326,0,0,0,1.2353.3145,9.2056,9.2056,0,0,0,1.1905-.0786,9.9831,9.9831,0,0,1,1.28-.0786q.9207,0,1.8081.0786t1.8306.0786h1.6172a.808.808,0,0,0,.5166-.4268q.1121-1.0107.2358-1.9653a15.9009,15.9009,0,0,0,.1236-2.0327v-.4043a9.9619,9.9619,0,0,0-.0562-1.0444,3.4354,3.4354,0,0,0-.3032-1.0669.7365.7365,0,0,0-.5391-.438q-.4269-.1232-.977-.2471a8.658,8.658,0,0,1-1.1006-.3257,1.8972,1.8972,0,0,1-.8872-.6513l.5615-.5616h.6963a13.6958,13.6958,0,0,1,1.999.146,14.0812,14.0812,0,0,0,2.0664.146q.876,0,1.9092-.0449t1.9312-.1348a.8993.8993,0,0,0,.2363-.0561.9045.9045,0,0,1,.2363-.0562h.1114a1.2549,1.2549,0,0,1,.6738.18.6554.6554,0,0,1,.2929.6065.772.772,0,0,1-.08.3706.56.56,0,0,1-.3242.2358,3.2492,3.2492,0,0,0-.3711.1123q-.2578.09-.5391.18t-.5508.1685c-.18.0527-.2988.0864-.3594.101a1.5879,1.5879,0,0,0-.3144.3145q-.1349.18-.2461.3594-.047,2.0442-.2139,4.0429-.1685,1.9995-.19,4.043a.29.29,0,0,0-.1016.1235.3693.3693,0,0,0-.0561.146,2.4378,2.4378,0,0,0-.0449.3145q-.0228.2249-.045.4941t-.0449.5166q-.0226.2476-.0224.3594v2.7178a1.6628,1.6628,0,0,1-.0562.2583,1.3884,1.3884,0,0,0-.0562.3032q-.0227.1575-.0449.292a1.1956,1.1956,0,0,0-.0224.2358v.73a7.6353,7.6353,0,0,0,.0449.8086,1.4069,1.4069,0,0,0,.292.7412,1.1077,1.1077,0,0,0,.6518.4155c.2989.0826.5977.1651.8985.2471a3.8511,3.8511,0,0,1,.7851.3032.6332.6332,0,0,1,.3379.6065v.2246a.316.316,0,0,1-.1015.1011,1.3745,1.3745,0,0,1-.168.101c-.0606.03-.1211.0562-.18.0787a.4839.4839,0,0,1-.1133.0336H88.5243q-1.0107,0-2.0322-.0786T84.4145,34.9a10.44,10.44,0,0,0-1.3028.0786,10.5213,10.5213,0,0,1-1.3027.0786h-.9883a.9233.9233,0,0,1-.2021-.0336,1.5974,1.5974,0,0,1-.2808-.1011.8434.8434,0,0,1-.2471-.1685.3235.3235,0,0,1-.101-.2358V34.496a1.36,1.36,0,0,1,.4043-.438,1.4444,1.4444,0,0,1,.4829-.2021,3.1755,3.1755,0,0,1,.539-.0674q.2805-.011.55-.0112a1.6211,1.6211,0,0,0,.82-.2808,1.5238,1.5238,0,0,0,.4942-.5952,2.9083,2.9083,0,0,0,.2358-.8086,6.0326,6.0326,0,0,0,.0674-.8984q0-.4718-.0337-.9322T83.516,29.42q0-.2022.0225-.6626t.0449-.9771q.0221-.5163.0449-.977t.0225-.6626a.21.21,0,0,0,.1123-.1348.5534.5534,0,0,0,.0449-.2022c0-.0146-.0039-.0224-.0112-.0224s-.0112-.0073-.0112-.0225a.02.02,0,0,1-.0225-.0224,1.0127,1.0127,0,0,0-.3931-.5616.8565.8565,0,0,0-.685-.1572q-.3824.0455-1.2354.0562t-1.8642.0112q-.9888,0-1.8755-.0112a11.979,11.979,0,0,1-1.2241-.0562c-.045,0-.1426-.0073-.292-.0225s-.3111-.0258-.4829-.0336-.3335-.0186-.483-.0337-.247-.0225-.2919-.0225h-.2247a1.0339,1.0339,0,0,0-.539.1123.6909.6909,0,0,0-.27.3145,1.6478,1.6478,0,0,0-.1235.4492q-.0336.2475-.0786.5166a.33.33,0,0,0-.1123.1572.9419.9419,0,0,1-.0449.1123.6921.6921,0,0,0,.0561.2359q.0556.1464.1011.1684v2.875a.4122.4122,0,0,0-.1572.2471,1.6123,1.6123,0,0,0-.0225.27v.1685a.3437.3437,0,0,0,.0225.146c0,.0151.0034.0561.0112.1235s.0186.1426.0337.2246a2.0858,2.0858,0,0,0,.0561.2358.3956.3956,0,0,0,.0562.1348,3.5319,3.5319,0,0,1-.0225.3819,4.0627,4.0627,0,0,0-.0224.4492,1.583,1.583,0,0,0,.1572.7187,1.0087,1.0087,0,0,0,.5166.4492,3.1467,3.1467,0,0,0,.73.191q.3926.0564.7973.0786a5.0088,5.0088,0,0,1,.73.09,1.1856,1.1856,0,0,1,.5279.2359.62.62,0,0,1,.2021.5053.5167.5167,0,0,1-.3818.5728,3.06,3.06,0,0,1-.7862.1011h-.4941q-.09-.0228-.3032-.0674c-.1426-.03-.2886-.0674-.438-.1123s-.292-.09-.4268-.1348A1.2836,1.2836,0,0,1,74.2172,34.7431Z" transform="translate(-6.996 -7.6892)"/>
      <path class="cls-1" d="M94.1845,34.4511a.6084.6084,0,0,1,.4043-.64,4.9167,4.9167,0,0,1,.91-.2246,5.39,5.39,0,0,0,.9541-.2359.7978.7978,0,0,0,.5391-.6738q0-.1567.0225-.5391c.0146-.2544.03-.5239.0449-.8086s.03-.55.0449-.7973.0225-.4229.0225-.5279q0-.0673.0107-.7636t.0117-1.5948q0-.8979.0117-1.83t.0108-1.4712q0-.3142-.0108-1.1231t-.0117-1.73q0-.9205-.0117-1.7295t-.0107-1.123c0-.06-.0078-.1685-.0225-.3257s-.03-.3257-.0449-.5054-.03-.3481-.0449-.5053-.0225-.2656-.0225-.3257a.793.793,0,0,0-.415-.5952,4.0756,4.0756,0,0,0-.8086-.3257q-.4614-.1347-.9326-.292a1.69,1.69,0,0,1-.7637-.4941.2945.2945,0,0,1-.1006-.1236.4233.4233,0,0,1-.0566-.1235V14.91a.4965.4965,0,0,1,.1347-.3482,1.0162,1.0162,0,0,1,.3369-.2358,2.0709,2.0709,0,0,1,.4268-.1348,2.096,2.096,0,0,1,.4043-.0449H95.33q.6284.1128,1.2353.2022a8.7232,8.7232,0,0,0,1.28.09h.27q.539-.0219,1.4267-.0449.8862-.0221,1.7627-.0449t1.5381-.0337q.6636-.0111.7529-.0113c.0752,0,.1944-.0073.3594-.0224s.3369-.03.5166-.0449.3447-.03.4941-.045a2.4208,2.4208,0,0,0,.3145-.0449.9491.9491,0,0,0,.1123-.0674.4365.4365,0,0,1,.2021-.09c.06-.0147.1573-.0371.292-.0674a1.5917,1.5917,0,0,1,.27-.0449,1.1941,1.1941,0,0,0,.247.2134,2.54,2.54,0,0,0,.3145.2133,2.4353,2.4353,0,0,0,.8086.2471,1.7661,1.7661,0,0,1,.8086.3145,3.7879,3.7879,0,0,1,.8418.7636,5.7176,5.7176,0,0,1,.6855,1.0332,6.1035,6.1035,0,0,1,.461,1.168,4.325,4.325,0,0,1,.1679,1.1455q0,.6291-.0449,1.19t-.1123,1.3028a.9033.9033,0,0,0-.3037.3481q-.145.2586-.28.5615t-.2695.5953a1.5009,1.5009,0,0,1-.27.4267q-.0455.0454-.1905.1685t-.3261.2583c-.12.09-.2393.1762-.3594.2583a2.5557,2.5557,0,0,1-.27.1684,1.0132,1.0132,0,0,1-.2578.1348c-.1425.06-.2929.1274-.4492.2022-.1582.0751-.3.1459-.4277.2133a1.5992,1.5992,0,0,0-.2129.1236.65.65,0,0,1-.1465.101c-.0664.0376-.1377.0787-.2129.1236a1.3658,1.3658,0,0,0-.2021.146.2267.2267,0,0,0-.09.1684c0,.0152.03.0415.09.0786s.1269.0826.2021.1348.1465.105.2129.1572a1.7017,1.7017,0,0,1,.1465.1236.3909.3909,0,0,0,.0332.101c.0234.0528.0488.1089.0791.1685s.0557.12.0791.18a.5305.5305,0,0,1,.0332.1123l.2695.2695a6.4514,6.4514,0,0,1,.7637.6963,7.9348,7.9348,0,0,1,.6738.8086c.0147.03.0567.1274.1231.292a1.75,1.75,0,0,0,.124.27q.0454.0675.1348.2022c.0595.09.12.18.18.2695s.1162.1763.1689.2583a1.1764,1.1764,0,0,0,.1006.146c.03.03.1045.105.2246.2246s.251.251.3935.3931.2764.2734.4043.393a2.5392,2.5392,0,0,0,.2579.2247.3266.3266,0,0,0,.0673.146c.045.0673.09.1425.1348.2246s.09.1572.1348.2246a.41.41,0,0,1,.0674.1235,3.3291,3.3291,0,0,0,.707.6289q.5288.3824,1.0781.7749t.9883.7412c.293.2324.4385.4082.4385.5279a.516.516,0,0,1-.1348.3818.87.87,0,0,1-.3144.2021,1.6181,1.6181,0,0,1-.4043.09c-.1495.0146-.2774.0224-.3819.0224-.1943,0-.3672-.0078-.5166-.0224a2.051,2.051,0,0,1-.5166-.1348h-2.8974a2.0828,2.0828,0,0,1-.9434-.2134,1.853,1.853,0,0,1-.5732-.5053,4.3471,4.3471,0,0,1-.4258-.7075,5.5034,5.5034,0,0,0-.4834-.7974,1.58,1.58,0,0,0-.2022-.3032q-.18-.2359-.3926-.4942t-.3935-.4717a1.2647,1.2647,0,0,1-.2022-.2807.7586.7586,0,0,1-.1679-.3145c-.0684-.18-.1162-.3144-.1465-.4043a.62.62,0,0,1-.1016-.2133,1.3239,1.3239,0,0,1-.0556-.191,2.9428,2.9428,0,0,1-.27-.247q-.18-.18-.37-.3819-.1919-.202-.3594-.3818a1.8294,1.8294,0,0,1-.2363-.292.75.75,0,0,1-.1572-.2583q-.1128-.2358-.1348-.3032c-.0146,0-.0556-.0371-.124-.1123-.0664-.0747-.1416-.1646-.2246-.27s-.168-.2055-.2578-.3032-.1651-.1831-.2246-.2583c-.09-.1045-.1914-.228-.3028-.3706a4.9129,4.9129,0,0,0-.3593-.4043,2.6534,2.6534,0,0,0-.3936-.3257.7579.7579,0,0,0-.4268-.1347h-.18c-.0147.1347-.03.3818-.045.7412s-.03.7412-.0449,1.1455-.03.7861-.0449,1.1455-.0225.6064-.0225.7412v.2695q0,.36.0108.8985t.0566,1.0556q.0455.5846.09,1.2354l.247.3144a1.5353,1.5353,0,0,0,.27.045c.1347.0151.28.0263.4384.0337.1563.0078.3028.0151.4375.0224s.2246.0112.27.0112c.09.03.206.0674.3476.1124a1.9475,1.9475,0,0,1,.4043.18,1.69,1.69,0,0,1,.3379.2583A.4538.4538,0,0,1,104,34.496q0,.315-.4043.4043c-.09.0147-.2392.0337-.4492.0562s-.4346.0483-.6738.0786-.4639.06-.6739.09-.3593.0523-.4492.0674h-.1123c-.0595-.03-.1611-.0786-.3027-.146a1.2041,1.2041,0,0,1-.2588-.146H98.1152a.8249.8249,0,0,0-.2022.0562,1.0836,1.0836,0,0,0-.2246.101,2.1587,2.1587,0,0,1-.1914.1348.6143.6143,0,0,1-.2129.1123.6813.6813,0,0,1-.2246-.1235.672.672,0,0,0-.2246-.1236h-.09a1.19,1.19,0,0,0-.5957.146,1.1871,1.1871,0,0,1-.5947.146.3425.3425,0,0,1-.124-.0224.2665.2665,0,0,0-.1006-.0225.9468.9468,0,0,1-.3145-.0786,2.3225,2.3225,0,0,1-.3818-.1909,1.5167,1.5167,0,0,1-.3144-.2583A.4679.4679,0,0,1,94.1845,34.4511Zm6.7607-10.1523a.9507.9507,0,0,0,.55.5839,2.3228,2.3228,0,0,0,.7979.1348,2.7616,2.7616,0,0,0,1.5381-.46,4.7913,4.7913,0,0,0,1.2246-1.1455,5.589,5.589,0,0,0,.8086-1.5049,4.6614,4.6614,0,0,0,.292-1.5611,8.1066,8.1066,0,0,0-.1006-1.2465,2.9425,2.9425,0,0,0-.461-1.1792c-.0449-.045-.1308-.127-.2578-.2471s-.2588-.2471-.3935-.3819-.2656-.2583-.3936-.3706a3.1726,3.1726,0,0,0-.2578-.2133c0-.0147-.0332-.0371-.1016-.0674-.0664-.03-.1376-.0635-.2128-.1011a1.432,1.432,0,0,0-.2247-.09.6509.6509,0,0,0-.1572-.0337,1,1,0,0,0-.124-.09c-.0664-.0449-.1377-.0932-.2129-.146a1.8275,1.8275,0,0,0-.2246-.1347.4452.4452,0,0,0-.1572-.0562h-.2246a1.8665,1.8665,0,0,0-1.2471.3594,1.5963,1.5963,0,0,0-.46,1.168,3.4237,3.4237,0,0,0-.0449.5053c-.0146.292-.03.6216-.0449.9883s-.03.7412-.0449,1.1231-.0225.685-.0225.91v.4268q0,.1347.0225.55c.0146.2773.03.5654.0449.8647s.03.5879.0449.8648S100.9306,24.2089,100.9452,24.2988Z" transform="translate(-6.996 -7.6892)"/>
      <path class="cls-1" d="M114.0175,34.249a.824.824,0,0,1,.2021-.6065,1.5749,1.5749,0,0,1,.4825-.3257,3.777,3.777,0,0,1,.5957-.2021,1.5993,1.5993,0,0,0,.5615-.2583,2.0731,2.0731,0,0,0,.2588-.1685q.1669-.123.3476-.2583c.12-.09.2246-.1684.3145-.2358s.1348-.1084.1348-.1236a.7046.7046,0,0,0,.1679-.2021,1.541,1.541,0,0,1,.1465-.2022.5444.5444,0,0,1,.0674-.18l.1348-.27q.0674-.1347.1347-.2583a.4586.4586,0,0,0,.0674-.1684q.18-.2469.3818-.4942a3.1941,3.1941,0,0,0,.337-.4941,8.7045,8.7045,0,0,0,.6513-1.5947,10.6589,10.6589,0,0,1,.6289-1.6172c.0147-.03.0528-.1157.1123-.2583s.1309-.292.2129-.4492.1582-.3033.2246-.438a1.2358,1.2358,0,0,1,.1465-.2471.9345.9345,0,0,1,.0225-.1235c.0146-.0674.03-.1421.0449-.2246s.03-.1573.0449-.2247a.788.788,0,0,0,.0225-.146.5119.5119,0,0,1,.0566-.1684,2.7667,2.7667,0,0,1,.1348-.2583c.0517-.09.1006-.1758.1455-.2583s.0752-.1382.09-.1685v-.584a.98.98,0,0,1,.0557-.1684q.0572-.1458.0791-.1909,0-.0447.1348-.1573c.09-.0747.1494-.1123.18-.1123a4.1565,4.1565,0,0,0,.3369-.7636c.0752-.2393.1494-.4678.2246-.6851a2.7686,2.7686,0,0,1,.3144-.6289,2.3177,2.3177,0,0,1,.6289-.5952,1.6494,1.6494,0,0,1,.0225-.2134,1.754,1.754,0,0,0,.0225-.2583,1.2475,1.2475,0,0,0-.168-.6289,1.3125,1.3125,0,0,1-.1689-.6738V17.92a2.2,2.2,0,0,1,.0556-.4043c.0381-.18.0713-.3594.1016-.5391s.0595-.34.09-.4829a1.7222,1.7222,0,0,0,.0449-.2808.5491.5491,0,0,0,.0782-.2583.4015.4015,0,0,1,.1914-.3032c.0595-.0147.2021-.0562.4267-.1235s.3741-.1158.4493-.146a3.3576,3.3576,0,0,0,.4384-.4268c.1416-.1645.2842-.3179.4258-.46a2.3836,2.3836,0,0,1,.4834-.3706,1.2742,1.2742,0,0,1,.6514-.1573h.247a3.0922,3.0922,0,0,1,.5049.82,4.7128,4.7128,0,0,1,.2588.8647q.0894.45.1455.91t.1465.9546c.0449.0151.1084.0976.1914.247a1.0352,1.0352,0,0,1,.1231.27,4.3291,4.3291,0,0,1,.2363,1,7.1179,7.1179,0,0,0,.168.9546q.18.7193.4043,1.415t.4716,1.415q.2241.7413.4268,1.3365t.4043,1.4712q.0673.2475.123.5615t.1241.64q.0674.3259.1347.6289a1.875,1.875,0,0,0,.18.5054q0,.09.19.3032c.128.1426.2061.2285.2364.2583a.8384.8384,0,0,0,.0332.1685c.0234.0825.0527.1723.09.2695s.0713.1875.1016.27.0527.1387.0674.1685a.6527.6527,0,0,0,.0556.146q.0572.1238.1348.2583a2.1853,2.1853,0,0,1,.1348.27.7826.7826,0,0,1,.0566.1572c.06.18.12.3819.18.6065s.1162.4531.168.685a6.3124,6.3124,0,0,0,.1914.6739,1.8169,1.8169,0,0,0,.292.55,2.0255,2.0255,0,0,0,.3593.3593,4.3213,4.3213,0,0,1,.4268.3931,2.7537,2.7537,0,0,1,.3476.4492.941.941,0,0,1,.1465.5054v.1123a.754.754,0,0,1-.0224.18.1524.1524,0,0,1-.1348.1123.6709.6709,0,0,1-.1572.0449c-.0752.0147-.1573.03-.2471.0449s-.1719.03-.2471.045a1.0011,1.0011,0,0,1-.18.0224h-4.3349c-.06,0-.1983-.0151-.4151-.0449s-.4531-.06-.708-.09-.49-.0635-.708-.1011a3.7758,3.7758,0,0,0-.3925-.0562h-.337a1.005,1.005,0,0,1,.3594-.8423,5.5726,5.5726,0,0,1,.7979-.5166,5.1584,5.1584,0,0,0,.8086-.539,1.1093,1.1093,0,0,0,.37-.91,1.33,1.33,0,0,0-.0449-.2246.7491.7491,0,0,1-.0225-.18c0-.0146-.0147-.09-.0449-.2246s-.0674-.2842-.1123-.4492-.09-.3291-.1348-.4941a2.1582,2.1582,0,0,0-.1348-.3819c-.0752-.2392-.1455-.4717-.2138-.6963a2.2129,2.2129,0,0,0-.28-.6064,1.5631,1.5631,0,0,0-.46-.4492,1.84,1.84,0,0,0-.708-.2471h-3.1q-.1128.0227-.3369.0561c-.1494.0225-.3027.0415-.4609.0562-.1563.0151-.3028.0264-.4375.0337s-.2246.0112-.27.0112a2.3986,2.3986,0,0,0-.6963.2808.9586.9586,0,0,0-.4267.5727,2.8065,2.8065,0,0,0-.1348.4493q-.0674.2922-.1347.5839t-.1123.5166a2.1822,2.1822,0,0,0-.045.27c0,.03-.0107.1538-.0342.3706-.0214.2173-.0332.3857-.0332.5053q0,.0228.0118.1348c.0068.0752.0146.1572.0214.2471s.0157.1763.0235.2583.0107.1387.0107.1684a2.08,2.08,0,0,0,.4942.3819q.3369.2021.6738.4155a5.854,5.854,0,0,1,.6064.438.8465.8465,0,0,1,.3145.4267.47.47,0,0,1-.1231.3819,1.3363,1.3363,0,0,1-.3593.2695,1.9265,1.9265,0,0,1-.4492.1685,1.7911,1.7911,0,0,1-.3936.0561,1.2309,1.2309,0,0,1-.4492-.0786,1.2334,1.2334,0,0,0-.4492-.0786h-.1573a.7484.7484,0,0,0-.2129.0786.765.765,0,0,1-.2138.0786h-1.28a1.5506,1.5506,0,0,0-.2021.0562,1.638,1.638,0,0,1-.2022.0561h-.3144c-.0147,0-.0938-.019-.2364-.0561a2.2979,2.2979,0,0,0-.2353-.0562h-1.7071A.71.71,0,0,1,114.0175,34.249Zm7.39-9.1192v.0674a.14.14,0,0,1,.0332.0674.1981.1981,0,0,0,.0567.09.2731.2731,0,0,0,.0674.1123q.1347.1128.4043.3257a3.506,3.506,0,0,0,.3144.2359h1.1231a.2566.2566,0,0,1,.1347.0786.2539.2539,0,0,0,.1348.0786h.7637c.09,0,.2285-.0034.415-.0113a4.3205,4.3205,0,0,0,.5508-.0561,1.4052,1.4052,0,0,0,.4824-.1685.3681.3681,0,0,0,.2139-.3256v-.1573a.5245.5245,0,0,1-.0674-.1235c-.03-.0674-.0635-.1382-.1016-.2134s-.07-.1494-.1006-.2246a.5035.5035,0,0,1-.0449-.1572q-.2021-.5838-.415-1.1231t-.416-1.0556a3.8417,3.8417,0,0,1-.168-.5391,1.3663,1.3663,0,0,0-.2363-.4941.9138.9138,0,0,1-.1573-.1236q-.1127-.1011-.2353-.2246c-.083-.082-.1582-.1533-.2246-.2134-.0684-.0595-.1016-.0971-.1016-.1123a.6135.6135,0,0,1-.2021-.292c-.03-.1044-.127-.1572-.292-.1572h-.0674a5.3,5.3,0,0,1-.5391,1.3477,9.1371,9.1371,0,0,0-.6064,1.28,2.5,2.5,0,0,1-.0566.4043c-.0372.1949-.07.3-.1006.3145a1.0836,1.0836,0,0,1-.1123.2808c-.06.1123-.1231.2324-.1914.3593-.0665.1275-.127.2549-.18.3819A.936.936,0,0,0,121.4071,25.13Z" transform="translate(-6.996 -7.6892)"/>
    </g>
    <g>
      <path class="cls-1" d="M107.1884,78.4662h-.1123a2.19,2.19,0,0,0-.3257.0557,2.5972,2.5972,0,0,0-.3706.1016h-5.1885c-.03-.045-.0674-.0977-.1123-.1573a1.1562,1.1562,0,0,1-.1572-.247v-.1348a.5081.5081,0,0,1,.2358-.4492,1.5813,1.5813,0,0,1,.55-.2246,4.5122,4.5122,0,0,1,.6514-.09,1.8911,1.8911,0,0,0,.5166-.09,3.2548,3.2548,0,0,0,.3706-.2578,1.4622,1.4622,0,0,0,.3032-.3037,2.2185,2.2185,0,0,0,.0562-.2588q.0336-.1905.0561-.3926c.0147-.1348.0259-.2617.0337-.3818s.0112-.2022.0112-.2471a5.0139,5.0139,0,0,1,.18-.91,3.2176,3.2176,0,0,0,.1348-.9091V70.8969a1.0975,1.0975,0,0,1,.0225-.1348c.0146-.0752.0258-.1494.0337-.2246a1.7066,1.7066,0,0,1,.0336-.2129.9654.9654,0,0,0,.0225-.124v-.1348a2.7138,2.7138,0,0,0-.0449-.3818c-.03-.18-.0528-.3066-.0674-.3818l-.09-5.3233-.0225-.4043V60.0483a.8037.8037,0,0,0-.1348-.2471c-.09-.1348-.165-.2393-.2246-.3145a1.1453,1.1453,0,0,0-.6064-.416q-.427-.1449-.876-.2578a4.7721,4.7721,0,0,1-.7974-.27.4925.4925,0,0,1-.3481-.4492.4034.4034,0,0,1,.1235-.3145.7969.7969,0,0,1,.292-.168,1.407,1.407,0,0,1,.3706-.0683c.1348-.0068.2471-.0108.3369-.0108h.27c.0595,0,.18.004.3593.0108s.3628.02.55.0342.3667.0263.5391.0341a2.73,2.73,0,0,1,.3706.0332l.1348.1573h.1572a.6065.6065,0,0,1,.2134-.1006.94.94,0,0,1,.2134-.0567h2.6728c.06,0,.18-.0117.3594-.0332a.7325.7325,0,0,0,.3144-.0791h6.2217a.4518.4518,0,0,0,.2022.0791,1.3137,1.3137,0,0,0,.2246.0332h1.55a1.0481,1.0481,0,0,1,.6963.3145,2.4021,2.4021,0,0,1,.4267.6963v1.6621a1.7057,1.7057,0,0,0,.0791.292,2.748,2.748,0,0,1,.0782.27v.2022a3.0053,3.0053,0,0,1-.0333.3369,4.3245,4.3245,0,0,1-.1015.5058,2.3631,2.3631,0,0,1-.168.46c-.0674.1348-.1465.2022-.2363.2022h-.0225a3.4923,3.4923,0,0,1-.584-.5391,4.9623,4.9623,0,0,1-.4043-.584c-.03-.06-.0781-.1572-.1455-.292a2.0265,2.0265,0,0,0-.1689-.292,3.6336,3.6336,0,0,0-.3369-.6406,3.88,3.88,0,0,0-.5166-.64,2.7512,2.7512,0,0,0-.6514-.4834,1.5225,1.5225,0,0,0-.7187-.1905h-4.8291a.4936.4936,0,0,0-.191-.1347.8193.8193,0,0,0-.2133-.0225h-.1573c-.06.03-.1611.0781-.3032.1465a.6887.6887,0,0,0-.2583.1679c-.0151,0-.0264.0333-.0337.1016-.0078.0664-.0151.1416-.0224.2246s-.0152.1563-.0225.2246a.2505.2505,0,0,1-.0337.1231.3733.3733,0,0,1-.0561.1465.7246.7246,0,0,1-.1011.1455q0,.2241-.0225.7636t-.0449,1.1338q-.0226.5962-.0449,1.1348t-.0449.7412v.8311c.0146.09.03.2324.0449.4267s.03.3965.0449.6065.03.4043.0449.5839.0225.3067.0225.3819a1.2681,1.2681,0,0,0,.292.1455q.202.079.4155.1465a3.19,3.19,0,0,0,.4155.1015,2.16,2.16,0,0,0,.3145.0332h.27q.561-.0453,1.1343-.0673a3.8953,3.8953,0,0,0,1.0557-.18,2.187,2.187,0,0,0,.854-.5166,1.9637,1.9637,0,0,0,.5048-1.0782c0-.0449.0079-.1347.0225-.2695s.03-.2773.0449-.4267.03-.292.0449-.4268.0225-.2324.0225-.292a1.0561,1.0561,0,0,1,.3818-.37.9571.9571,0,0,1,.4942-.1914.5363.5363,0,0,1,.4941.2578,1.0476,1.0476,0,0,1,.1572.5508c0,.165-.0039.3144-.0107.4492a1.6131,1.6131,0,0,1-.1016.4492v4.4922a.9414.9414,0,0,1,.1016.3594c.0068.12.0107.2392.0107.3594v1.0107a1.2975,1.2975,0,0,1-.123.584c-.083.165-.2734.247-.5732.247a.674.674,0,0,1-.5616-.2578,1.8958,1.8958,0,0,1-.3144-.663,7.0747,7.0747,0,0,1-.18-.8536q-.0674-.45-.168-.8535a2.1925,2.1925,0,0,0-.27-.6631.5645.5645,0,0,0-.5059-.2578h-.247a.9684.9684,0,0,1-.2359.0449c-.1274.0147-.2661.03-.4155.045s-.2847.03-.4043.0449-.1875.0224-.2021.0224h-1.5723a1.36,1.36,0,0,0-.6738.3252,1.629,1.629,0,0,0-.3819.5625,2.38,2.38,0,0,0-.1684.7071q-.0338.3823-.0337.7861v.7861a1.6681,1.6681,0,0,1-.0225.27,1.4936,1.4936,0,0,0-.0224.247,1.5536,1.5536,0,0,1-.0674.27,1.5433,1.5433,0,0,0-.0674.2695v1.8867a9.6264,9.6264,0,0,0,.0449.9658,3.6654,3.6654,0,0,0,.2471.9659,2.2711,2.2711,0,0,0,1.0444.3369q.5053.0219,1.0669.0674a3.76,3.76,0,0,1,.4043.0449q.3142.0455.6738.1123t.6739.1123a3.7316,3.7316,0,0,0,.4043.0449h1.2353c0,.0147.041.0557.124.124a.7128.7128,0,0,0,.1905.1231h.1123a.544.544,0,0,0,.1347-.0674c.03-.0146.06-.03.09-.0449A.1809.1809,0,0,1,113.59,77.5q.0453,0,.1347.1231a1.4963,1.4963,0,0,0,.1348.1689h.1572a.6127.6127,0,0,1,.0449-.1689c.03-.0821.0674-.1231.1123-.1231h.1123a7.9784,7.9784,0,0,0,2.2686-1.9541q.9214-1.1675,1.7969-2.4033l.0674-.0225a.0506.0506,0,0,1,.0341.0108.0431.0431,0,0,0,.0332.0117h.0225c.0147,0,.0566.0371.124.1123a.9066.9066,0,0,1,.1231.1572v.9883a4.6973,4.6973,0,0,1-.0449.4941c-.03.2393-.0557.4942-.0782.7637s-.0488.5244-.0791.7637a4.7017,4.7017,0,0,0-.0449.4941.872.872,0,0,0-.168.3819c-.0224.1347-.0449.2656-.0673.3935a2.6183,2.6183,0,0,1-.09.3594.6433.6433,0,0,1-.2363.3027c-.09,0-.2578.0039-.5049.0118s-.5059.0185-.7754.0332-.5244.03-.7637.0449-.4043.0224-.4941.0224a.7444.7444,0,0,0-.1455.045c-.083.03-.1729.0673-.2695.1123s-.1875.082-.27.1123a.7691.7691,0,0,1-.1465.0449,1.7107,1.7107,0,0,1-.292-.0791,2.72,2.72,0,0,0-.27-.0781h-.09a7.393,7.393,0,0,0-1.0557.0781,7.7323,7.7323,0,0,1-1.123.0791,16.63,16.63,0,0,1-2.28-.1572A16.637,16.637,0,0,0,107.1884,78.4662Z" transform="translate(-6.996 -7.6892)"/>
      <path class="cls-1" d="M128.9306,78.4662h-5.3457a2.0884,2.0884,0,0,1-.4717.1348,4.027,4.027,0,0,1-.4717.0225,1.4392,1.4392,0,0,1-.6621-.18.6286.6286,0,0,1-.3486-.6065q0-.5171.3261-.6064a3.2668,3.2668,0,0,1,.7745-.1016,3.6446,3.6446,0,0,0,.9209-.1455,1.2687,1.2687,0,0,0,.7636-.7412c.03-.06.0635-.1387.1016-.2363a.9525.9525,0,0,0,.0557-.168c0-.06.0078-.1836.0224-.3711s.03-.3848.0449-.5947.03-.4121.045-.6065.0224-.3291.0224-.4043c.0147-.21.0264-.5576.0342-1.0449s.0186-1.0029.0332-1.5488.0264-1.06.0342-1.5391.0107-.8086.0107-.9882a.73.73,0,0,0,.1123-.3477c.03-.1875.045-.2959.045-.3262v-.876a2.6058,2.6058,0,0,0,.0449-.3251c.0146-.1583.03-.3262.0449-.5059s.03-.3477.0449-.5059c.0147-.1562.0225-.2656.0225-.3252a1.2131,1.2131,0,0,1,.0224-.1689c.0147-.082.03-.1719.045-.27s.03-.1866.0449-.27a1.1866,1.1866,0,0,0,.0224-.1679.837.837,0,0,0-.0556-.2022q-.0571-.1567-.0791-.2021,0-.18.0117-.6739.01-.4936.0107-1.0332t-.0107-1.0107q-.0117-.4718-.0117-.6514a1.2618,1.2618,0,0,0-.3819-.9883,2.4438,2.4438,0,0,0-.831-.4375q-.4718-.1464-.9658-.3261a1.4174,1.4174,0,0,1-.7637-.6514v-.1123a.7767.7767,0,0,1,.2471-.6064h.584a2.5848,2.5848,0,0,1,.8427.1347,2.5724,2.5724,0,0,0,.8418.1348.8042.8042,0,0,0,.2246.0224h.3819q.4261,0,.91-.0117c.3213-.0068.5127-.0107.5723-.0107a1.189,1.189,0,0,1,.3037.0674,1.378,1.378,0,0,0,.2578.0674c.0147,0,.0635.0039.1465.0107s.1719.0117.2695.0117.1944.0039.292.0117.1758.0108.2354.0108a7.6287,7.6287,0,0,0,1.831-.2246,7.6163,7.6163,0,0,1,1.83-.2246.9766.9766,0,0,1,.4717.09q.1567.0894.1572.4717a.764.764,0,0,1-.2129.5957,1.2363,1.2363,0,0,1-.5508.27,6.5314,6.5314,0,0,1-.7519.1231,6.7117,6.7117,0,0,0-.8428.1464,2.9111,2.9111,0,0,0-.7969.3145,1.6565,1.6565,0,0,0-.6181.6621c0,.06-.0078.165-.0225.3145s-.03.3105-.0449.4824-.03.334-.0449.4834-.0225.2549-.0225.3144v1.9541a.8313.8313,0,0,0-.0449.2022c-.0147.1045-.03.2207-.0449.3486s-.03.2461-.045.3594a2.1577,2.1577,0,0,0-.0224.2353c-.03.0147-.0449.0977-.0449.2471v.3369a1.137,1.137,0,0,0,.5166,1.0557,2.3272,2.3272,0,0,0,1.2353.3144,9.3589,9.3589,0,0,0,1.19-.0781,9.91,9.91,0,0,1,1.28-.0791q.9214,0,1.8086.0791t1.83.0781H137.96a.8119.8119,0,0,0,.5176-.4267q.1113-1.0107.2363-1.9658a15.9107,15.9107,0,0,0,.123-2.0323v-.4043a9.9408,9.9408,0,0,0-.0566-1.0439,3.4335,3.4335,0,0,0-.3027-1.0674.741.741,0,0,0-.5391-.4385q-.4278-.123-.9775-.2461a8.8188,8.8188,0,0,1-1.1006-.3261,1.8994,1.8994,0,0,1-.8877-.6514l.5615-.5615h.6963a13.613,13.613,0,0,1,1.999.1465,14.2509,14.2509,0,0,0,2.0664.1455q.876,0,1.91-.0449,1.0313-.0454,1.9316-.1348a.9139.9139,0,0,0,.2363-.0557.8617.8617,0,0,1,.2344-.0566h.1133a1.26,1.26,0,0,1,.6738.18.6579.6579,0,0,1,.291.6064.77.77,0,0,1-.0781.37.565.565,0,0,1-.3262.2364,3.2526,3.2526,0,0,0-.3691.1123c-.1738.0595-.3535.12-.5391.18-.1875.0595-.3711.1162-.5507.1689s-.3008.0859-.3594.1006a1.524,1.524,0,0,0-.3145.3144c-.09.12-.1718.2393-.248.3594q-.0439,2.0434-.2129,4.043-.1669,1.9995-.1914,4.0429a.2974.2974,0,0,0-.1.1241.335.335,0,0,0-.0567.1455,2.2061,2.2061,0,0,0-.0449.3144c-.0156.1494-.0312.3145-.0449.4942-.0156.18-.0313.3515-.0449.5166-.0157.165-.0235.2842-.0235.3593V73.3a1.5769,1.5769,0,0,1-.0547.2588,1.3023,1.3023,0,0,0-.0566.3027c-.0156.1045-.0312.2022-.0449.292a1.1544,1.1544,0,0,0-.0235.2354V75.12a7.9136,7.9136,0,0,0,.045.8086,1.4156,1.4156,0,0,0,.2929.7412,1.1134,1.1134,0,0,0,.65.415c.3008.083.6.165.8985.248a3.7776,3.7776,0,0,1,.7871.3028.6315.6315,0,0,1,.3359.6064v.2246a.3055.3055,0,0,1-.1.1006,1.223,1.223,0,0,1-.17.1016,1.4512,1.4512,0,0,1-.18.0781.445.445,0,0,1-.1113.0342h-1.2129q-1.0109,0-2.0332-.0791c-.6817-.0518-1.3731-.0781-2.0782-.0781a10.6268,10.6268,0,0,0-1.3027.0781,10.4369,10.4369,0,0,1-1.3027.0791h-.9883a.8755.8755,0,0,1-.2022-.0342,1.502,1.502,0,0,1-.28-.1006.8261.8261,0,0,1-.2471-.1689.3211.3211,0,0,1-.1016-.2354v-.0224a1.3578,1.3578,0,0,1,.4043-.4375,1.4447,1.4447,0,0,1,.4834-.2032,3.09,3.09,0,0,1,.5391-.0664c.1865-.0078.37-.0117.55-.0117a1.62,1.62,0,0,0,.82-.2812,1.5191,1.5191,0,0,0,.4942-.5948,2.9062,2.9062,0,0,0,.2353-.8086,6.0525,6.0525,0,0,0,.0684-.8984c0-.3144-.0118-.625-.0332-.9326q-.0353-.46-.0352-.8418,0-.2022.0234-.6621c.0137-.3076.0293-.6328.045-.9776.0136-.3447.0293-.67.0449-.9775.0137-.3066.0215-.5273.0215-.6621a.2136.2136,0,0,0,.1133-.1348.5678.5678,0,0,0,.0449-.2021c0-.0147-.0039-.0225-.0117-.0225s-.0118-.0078-.0118-.0224a.02.02,0,0,1-.0214-.0225,1.0149,1.0149,0,0,0-.3936-.5615.8569.8569,0,0,0-.6855-.1572q-.3824.0453-1.2354.0566t-1.8643.0107q-.9887,0-1.875-.0107a12.1075,12.1075,0,0,1-1.2246-.0566c-.0449,0-.1425-.0079-.292-.0225s-.3105-.0264-.4824-.0342-.334-.0185-.4834-.0332-.247-.0225-.292-.0225h-.2246a1.0313,1.0313,0,0,0-.539.1124.69.69,0,0,0-.27.3144,1.6589,1.6589,0,0,0-.123.4492c-.0225.1651-.0488.3369-.0791.5166a.3307.3307,0,0,0-.1123.1573.91.91,0,0,1-.0449.1123.6809.6809,0,0,0,.0566.2353c.0371.0977.07.1543.1006.169V73.57a.4116.4116,0,0,0-.1572.247,1.6681,1.6681,0,0,0-.0225.27v.1679a.353.353,0,0,0,.0225.1465c0,.0147.0039.0566.0117.1231.0068.0683.0185.1425.0332.2246a2.0942,2.0942,0,0,0,.0566.2363.4088.4088,0,0,0,.0557.1348,3.53,3.53,0,0,1-.0225.3818,4.1846,4.1846,0,0,0-.0224.4492,1.5915,1.5915,0,0,0,.1572.7188,1.0116,1.0116,0,0,0,.5166.4492,3.144,3.144,0,0,0,.7305.19q.3925.0572.7968.0791a4.9558,4.9558,0,0,1,.7305.09,1.1943,1.1943,0,0,1,.5273.2353.6226.6226,0,0,1,.2022.5059.515.515,0,0,1-.3818.5722,3.0175,3.0175,0,0,1-.7862.1016h-.4941c-.06-.0147-.1612-.0371-.3028-.0674s-.289-.0674-.4384-.1123-.292-.09-.4268-.1348A1.2811,1.2811,0,0,1,128.9306,78.4662Z" transform="translate(-6.996 -7.6892)"/>
      <path class="cls-1" d="M148.45,77.9047a.8067.8067,0,0,1,.2363-.5957,1.8163,1.8163,0,0,1,.5723-.3808,5.6041,5.6041,0,0,1,.6963-.2481,4.1634,4.1634,0,0,0,.6064-.2129,4.7659,4.7659,0,0,0,.7637-.4824,1.8125,1.8125,0,0,0,.4492-.5176,2.0933,2.0933,0,0,0,.2246-.65,5.1975,5.1975,0,0,0,.0674-.91v-2.65c0-.03.0078-.1016.0225-.2129.0146-.1133.0332-.2324.0566-.3594.0215-.1279.041-.2441.0557-.3486a2.009,2.009,0,0,0,.0224-.2022V69.976c0-.03-.0078-.1123-.0224-.2471s-.0342-.2812-.0557-.4375c-.0234-.1582-.042-.3037-.0566-.4384s-.0225-.2247-.0225-.27v-.292c0-.03.0078-.1123.0225-.247s.0332-.28.0566-.4385c.0215-.1563.041-.3067.0557-.4492s.0224-.2276.0224-.2578c.0147-.1045.03-.3028.045-.5957.0146-.2911.03-.6026.0449-.9317s.03-.6406.0449-.9316c.0147-.293.0225-.4981.0225-.6182a1.3134,1.3134,0,0,0,.1006-.37c.0078-.0977.0117-.2061.0117-.3262a1.9623,1.9623,0,0,0-.2813-1,4.8873,4.8873,0,0,0-.6845-.9092,8.943,8.943,0,0,0-.8643-.7978c-.3076-.2461-.5811-.4678-.82-.6621-.0147,0-.0371-.0147-.0674-.0449a.1516.1516,0,0,1-.0449-.1123,1.01,1.01,0,0,1-.18-.18c-.0752-.09-.1572-.1875-.2471-.292s-.1758-.2061-.2578-.3028-.1387-.1611-.1689-.1914V58.476a.462.462,0,0,1,.1123-.3252c.0752-.083.1718-.1992.292-.3486a1.5107,1.5107,0,0,1,.1455-.1348.313.313,0,0,1,.1465-.0225h.7187a.3551.3551,0,0,0,.1465.045c.082.0146.168.03.2578.0449s.1758.03.2578.0449.1319.0225.1465.0225h1.3926a3.6225,3.6225,0,0,1,.3711.1347,1.4268,1.4268,0,0,0,.3476.1123c.0752.0147.1983.03.3711.045s.3555.03.55.0449.378.03.55.0449.2959.0225.3711.0225l.5616.5615c.0146.03.041.0781.0791.1465.0371.0664.0742.1416.1113.2246s.0752.1562.1133.2246a.7352.7352,0,0,0,.0781.123c.0146.0147.0859.0938.2129.2364s.2812.31.4609.5049.3672.3935.5615.5947c.1944.2031.3516.3633.4717.4834l.0225.0224c.0146.0147.0224.0264.0224.0332s.0079.02.0225.0342a.1406.1406,0,0,0,.0674.0674.43.43,0,0,1,.1572.0566c.0752.0372.1123.0635.1123.0782.03,0,.0567.0635.0781.1914a.52.52,0,0,0,.0791.2353,1.9137,1.9137,0,0,0,.169.2246c.0967.12.2012.251.3144.3936.1114.1416.2168.2725.3145.3926s.16.1943.19.2246a.4506.4506,0,0,0,.1006.18c.0684.09.1387.1914.2139.3027.0752.1133.1494.2178.2246.3145a2.4007,2.4007,0,0,0,.1572.1914c.0449.0449.1651.1611.3594.3476s.4.39.6172.6074.42.4229.6074.6172.3027.3223.3477.3819a2.2951,2.2951,0,0,1,.2246.3037c.1045.1562.2207.333.3476.5273s.2442.3711.3487.5274a2.2766,2.2766,0,0,0,.2246.3037,2.3112,2.3112,0,0,0,.2021.2353c.1045.1133.2168.2324.3369.3594s.2354.248.3487.3594a.8241.8241,0,0,0,.2353.1914c.03.03.0938.1015.19.2129.0977.1133.1993.2324.3037.3593s.2061.2481.3038.3594a.967.967,0,0,0,.19.1914c.0146.0147.0557.0489.124.1016.0664.0518.1416.1084.2246.168a1.7814,1.7814,0,0,1,.2129.18l.1123.1124a1.7691,1.7691,0,0,1,.3369.3369.5875.5875,0,0,0,.3819.2246,1.2368,1.2368,0,0,1,.4043-.5615v-1.55a1.9917,1.9917,0,0,0-.0225-.2021c-.0146-.1045-.03-.2168-.0449-.3369s-.03-.2363-.0449-.3477a2.195,2.195,0,0,1-.0225-.2363v-2.65c0-.03-.0078-.1045-.0225-.2246s-.0332-.2432-.0566-.3711c-.0215-.1269-.041-.2432-.0557-.3476s-.0224-.1651-.0224-.18v-.2246a3.7789,3.7789,0,0,1,.0781-.7754,3.484,3.484,0,0,0,.0791-.73c0-.3-.0107-.5987-.0342-.8985a6.5568,6.5568,0,0,0-.123-.8759,1.1064,1.1064,0,0,0-.3145-.5059,2.03,2.03,0,0,0-.3594-.3252,1.9387,1.9387,0,0,0-.7519-.2471q-.5288-.0892-1.0781-.2246a4.0707,4.0707,0,0,1-.9668-.3594.7074.7074,0,0,1-.4151-.6513.5583.5583,0,0,1,.169-.4151.7478.7478,0,0,1,.3926-.2138c.06-.0147.1494-.0342.2695-.0557.12-.0234.2471-.042.3818-.0566s.2588-.0264.37-.0332c.1133-.0078.1836-.0118.2139-.0118a.9321.9321,0,0,1,.2246.045.7674.7674,0,0,1,.2471.1123h3.6162l.2695-.1573h3.1895c.0449,0,.1006.06.1689.18a1.1992,1.1992,0,0,0,.1455.2246v.4268a1.0025,1.0025,0,0,1-.3369.3486,2.7713,2.7713,0,0,1-.4717.2461,4.0917,4.0917,0,0,1-.4941.169c-.165.0449-.3.082-.4043.1123h-.6738a.4316.4316,0,0,0-.18.1015,1.711,1.711,0,0,1-.2246.1456,2.7262,2.7262,0,0,1-.3037.2353c-.1563.1133-.25.1836-.28.2139a.737.737,0,0,0-.3037.3935,4.654,4.654,0,0,0-.1006.5948c0,.1044-.0078.2958-.0225.5732s-.0332.5723-.0566.8867c-.0215.3145-.041.6065-.0557.876s-.0224.457-.0224.5615c0,.0449-.0078.127-.0225.2471s-.0342.2549-.0557.4043c-.0234.1494-.0419.2842-.0566.4043s-.0225.2021-.0225.247v3.9082c0,.045-.0078.127-.0224.2471s-.0264.251-.0332.3936-.02.2763-.0342.4043-.0225.205-.0225.2353v3.2119a.3634.3634,0,0,1,.0782.1348.4048.4048,0,0,1,.0341.1348.9586.9586,0,0,1-.0556.2129,1.3123,1.3123,0,0,0-.0567.1914v.4716a7.5781,7.5781,0,0,0,.0567.9327,8.1347,8.1347,0,0,1,.0556.9765v.8311a1.0417,1.0417,0,0,1-.3144.6064.8626.8626,0,0,1-.6289.27,1.4431,1.4431,0,0,1-.9326-.337q-.4146-.3369-.7969-.6513a1.04,1.04,0,0,0-.1572-.2022,1.8049,1.8049,0,0,1-.1241-.19c-.0371-.0684-.07-.124-.1-.1689q-.7193-.9888-1.4932-1.9209-.7764-.9316-1.584-1.8418-.8086-.9082-1.6289-1.8184t-1.583-1.8535a1.8588,1.8588,0,0,1-.169-.1348c-.0664-.06-.1152-.1045-.1455-.1348a4.469,4.469,0,0,1-.8877-.9208q-.3471-.4938-.7968-1.0782a.5279.5279,0,0,1-.1465-.1123c-.082-.0752-.1719-.1572-.2695-.247s-.1866-.1758-.27-.2588a.8979.8979,0,0,1-.1455-.168,1.1857,1.1857,0,0,0-.1348-.292.9036.9036,0,0,0-.18-.27q0-.0675-.1348-.2139c-.09-.0967-.19-.2012-.3037-.3145-.1113-.1113-.2168-.2128-.3145-.3027a1.175,1.175,0,0,0-.19-.1572.5767.5767,0,0,1-.0674-.1572.54.54,0,0,0-.0674-.1348q-.0673-.0674-.28-.2695a3.3675,3.3675,0,0,1-.3037-.3145q-.022,0-.0674.0674a.2289.2289,0,0,0-.045.09c-.03.06-.0781.18-.1464.3594-.0664.18-.1153.3-.1455.3594v2.6728c0,.419.0078.82.0224,1.2012a11.1887,11.1887,0,0,0,.1348,1.292,5.0575,5.0575,0,0,0,.123.8428,4.8789,4.8789,0,0,1,.1241.8642v1.9541c0,.06.0078.168.0224.3262.0147.1563.03.3252.0449.5049s.03.3516.045.5166.03.2842.0449.3594a1.5363,1.5363,0,0,0,.1914.6738,2.6314,2.6314,0,0,0,.5273.5391.564.564,0,0,0,.4492.18,1.5509,1.5509,0,0,0,.2471-.0224,1.5411,1.5411,0,0,1,.2471-.0225,2.42,2.42,0,0,1,.4375.1465,1.3762,1.3762,0,0,1,.416.2695,1.7285,1.7285,0,0,1,.3027.37.801.801,0,0,1,.1241.4267.6635.6635,0,0,1-.2588.5723,1.0409,1.0409,0,0,1-.64.1914h-.2246c-.03,0-.1006-.0078-.2139-.0225-.1113-.0146-.2314-.0263-.3593-.0342s-.2432-.0185-.3477-.0332-.165-.0224-.18-.0224a2.6653,2.6653,0,0,0-.3818.0556,3.2489,3.2489,0,0,1-.3369.0567h-1.55c-.0752,0-.2471.0146-.5166.0449s-.5616.06-.876.09-.6065.0595-.876.09-.4414.0527-.5166.0674h-.18a1.1888,1.1888,0,0,1-.415-.09,2.1159,2.1159,0,0,1-.4492-.2353,1.5272,1.5272,0,0,1-.3594-.3379A.6373.6373,0,0,1,148.45,77.9047Z" transform="translate(-6.996 -7.6892)"/>
    </g>
    <path class="cls-1" d="M57.7885,103.0287a1.17,1.17,0,0,1,.2285-.7031,2.5516,2.5516,0,0,1,.5625-.5625,4.108,4.108,0,0,1,.7207-.4219q.3867-.1756.668-.3164,1.16.1055,2.4258.1055a9.4493,9.4493,0,0,0,1.3007-.0879,2.901,2.901,0,0,0,1.125-.3867,2.1,2.1,0,0,0,.7735-.8262,2.9962,2.9962,0,0,0,.2812-1.4062V90.0912a2.0093,2.0093,0,0,1-.123-.5625q-.0528-.4218-.0528-.5625V88.58q0-.1054.0352-.457c.023-.2334.04-.4922.0527-.7734s.0293-.545.0528-.7911.0351-.4043.0351-.4746c0-.1875.0054-.55.0176-1.09s.023-1.1074.0352-1.7051.0229-1.1719.0351-1.7227.0176-.9316.0176-1.1425v-1.125q.0343-.3165.0527-1.1953t.0352-1.8457q.0175-.9669.0351-1.8457c.0118-.585.0176-.9844.0176-1.1954a1.8769,1.8769,0,0,0-.0351-.2636q-.0353-.192-.0879-.4219c-.0352-.1524-.065-.293-.0879-.4219a1.7589,1.7589,0,0,1-.0352-.2637v-.4218a2.5739,2.5739,0,0,1,.0352-.2989c.0229-.1523.0469-.31.07-.4746s.0469-.3213.07-.4746a2.1837,2.1837,0,0,1,.07-.334v-10.09a6.1032,6.1032,0,0,1,.2285-1.7051,6.39,6.39,0,0,0,.2286-1.7754,4.2709,4.2709,0,0,0-.2637-1.6,2.9994,2.9994,0,0,0-1.1074-1.248,2.72,2.72,0,0,1-.7559.07H62.2358a2.1577,2.1577,0,0,1-.6856-.07,2.3628,2.3628,0,0,1-.791-.1758q-.4746-.1758-.9492-.4043a5.5345,5.5345,0,0,1-.8614-.51,2.1726,2.1726,0,0,1-.5273-.4922,1.9057,1.9057,0,0,1,.9844-.8613,4.0236,4.0236,0,0,1,1.16-.1582h1.336a2.0577,2.0577,0,0,0,.4746-.123,2.4,2.4,0,0,1,.4394-.1231,1.12,1.12,0,0,1,.1758.0352,2.6069,2.6069,0,0,1,.2813.0879c.0932.0351.1811.0649.2636.0879a.7943.7943,0,0,0,.1582.0351h3.7618a1.6759,1.6759,0,0,0,.5625.1934,3.848,3.848,0,0,0,.6328.0527h1.23l.2813.07a1.1223,1.1223,0,0,1,.3164.1055h3.0586c.07,0,.2051.0122.4043.0351s.4043.0474.6152.07.41.0473.5977.07a2.3863,2.3863,0,0,1,.3867.07l.4922-.2461h3.6562a2.1607,2.1607,0,0,1,.5977-.1231q.4563-.0526.5273-.0527l.1407-.07.1406-.07a20.1088,20.1088,0,0,1,6.0464.914l.2109.211a12.7623,12.7623,0,0,0,1.8984,1.09q.9844.457,1.8985.9492l.07.07a.7418.7418,0,0,0,.1758.1406.9719.9719,0,0,0,.1758.334q.1756.2635.2109.3339a.225.225,0,0,0,.1055.1055.1378.1378,0,0,0,.1406.1055q.8087,1.02,1.4766,2.0039a14.6869,14.6869,0,0,1,1.16,2.0391,10.9728,10.9728,0,0,1,.7559,2.2148,11.2532,11.2532,0,0,1,.2636,2.4961v.2461a2.9618,2.9618,0,0,1-.0351.3164c-.0235.1641-.041.3467-.0528.5449s-.0292.3818-.0527.5449a2.86,2.86,0,0,0-.0351.3516V67.31a4.5764,4.5764,0,0,1-.2461.5976,3.6481,3.6481,0,0,1-.2461.4747,2.77,2.77,0,0,0-.211.4043q-.3164.81-.6855,1.8281a5.5341,5.5341,0,0,1-.9668,1.7226,1.54,1.54,0,0,1-.3867.07q-.3165.0352-.3164.1055c-.0469.0479-.1582.1582-.334.334a3.1319,3.1319,0,0,0-.334.3691,1.4115,1.4115,0,0,1-.2988.1407c-.1758.07-.3633.1533-.5625.2461s-.3868.1884-.5625.2812a1.6788,1.6788,0,0,0-.334.2109c-.0938.07-.2461.2061-.457.4043s-.4336.41-.668.6329-.4512.4394-.65.65-.334.3643-.4043.4571q.0351.1405.2461.2109a1.8125,1.8125,0,0,0,.457.0879c.1641.0127.3281.0234.4922.0352a1.7241,1.7241,0,0,1,.3516.0527q.0351.1055.3867.334a3.4012,3.4012,0,0,1,.4922.3691,2.0161,2.0161,0,0,0,.3164.334,2.06,2.06,0,0,1,.3164.334,1.0623,1.0623,0,0,0,.1933.123q.1582.0879.334.1934l.3516.2109a.612.612,0,0,0,.2461.1055,10.8193,10.8193,0,0,1,1.8984,1.9688q.8438,1.1263,1.5821,2.25.0351.0351.1582.1933c.082.1055.17.2236.2636.3516s.1875.2519.2813.3691.1523.1885.1758.211a6.3422,6.3422,0,0,1,.5625,1.3359q.2813.8789.4922,1.8281t.3515,1.8457a9.7053,9.7053,0,0,1,.1406,1.4238,3.8932,3.8932,0,0,1-.1582,1.0547c-.1054.375-.205.7159-.2988,1.02a3.5078,3.5078,0,0,0-.123.6152q-.0528.4043-.0528.4746v1.09a5.78,5.78,0,0,1-.3867,1.0195,8.9513,8.9513,0,0,1-.5273.9844c-.1875.3291-.3985.6914-.6328,1.09a12.2254,12.2254,0,0,1-.7735,1.16,13.0737,13.0737,0,0,1-.8789,1.0546,4.9424,4.9424,0,0,1-.9492.8086c-.07.0479-.2109.1289-.4219.2461s-.4453.2412-.7031.3692l-.7031.3515a1.2731,1.2731,0,0,1-.4219.1582c-.2109.1182-.3809.2168-.51.2989a4.2664,4.2664,0,0,1-.4043.2285q-.2109.1055-.457.2109a3,3,0,0,1-.6328.1758c-.2578.0479-.5742.1055-.9492.1758l-1.125.2109q-.6329.1407-1.336.2461H73.3627a1.2262,1.2262,0,0,1-.2988.07q-.2293.0353-.4746.07t-.4746.07a2.48,2.48,0,0,1-.334.0351H65.2065a4.7947,4.7947,0,0,1-.9317.1758q-.44.0351-.8965.0351H61.0932a1.5115,1.5115,0,0,0-.334.0879,1.5184,1.5184,0,0,1-.334.0879h-.5625c-.1406,0-.3286-.0117-.5625-.0351a2.7767,2.7767,0,0,1-.6855-.1582,1.8708,1.8708,0,0,1-.58-.334A.666.666,0,0,1,57.7885,103.0287Zm15.5742-4.957a5.3116,5.3116,0,0,0,.2461,1.793,9.1909,9.1909,0,0,0,.8086,1.582.5558.5558,0,0,0,.123.2461.757.757,0,0,1,.1231.2109c.0469,0,.1758.0127.3867.0352s.3394.0352.3867.0352a2.4405,2.4405,0,0,0,1.2481-.3165,3.0745,3.0745,0,0,1,1.248-.3867q.6328-.0336,1.1778-.0527.5448-.0175,1.0722-.0527a6.3478,6.3478,0,0,0,1.0547-.1582,4.7364,4.7364,0,0,0,1.125-.4395,3.0543,3.0543,0,0,0,.2637-.1582c.1284-.082.2637-.17.4043-.2637s.2754-.1758.4043-.2461a.7167.7167,0,0,1,.2636-.1054,1.1,1.1,0,0,1,.2286-.1231c.1284-.0576.269-.1172.4218-.1758s.2925-.1054.4214-.1406a1.5305,1.5305,0,0,1,.2285-.0527,1.6182,1.6182,0,0,0,.4746-.2989c.2227-.1757.3575-.2861.4043-.3339.0469-.07.1641-.2159.3516-.4395s.3984-.4746.6328-.7558.4571-.5625.668-.8438.375-.4922.4922-.6328a3.2094,3.2094,0,0,0,.2988-.3516.6866.6866,0,0,0,.1582-.2812,6.3251,6.3251,0,0,0,.4746-1.4239,8.7724,8.7724,0,0,1,.44-1.4589v-3.27a.9587.9587,0,0,1-.2461-.4218,1.6643,1.6643,0,0,1-.07-.4571,2.5651,2.5651,0,0,1,.0351-.4218,2.205,2.205,0,0,0,.0352-.3516v-.1055a2.6163,2.6163,0,0,0-.3867-1.0371,2.0555,2.0555,0,0,1-.3164-1.1074.584.584,0,0,1,.0175-.1406.5734.5734,0,0,0,.0176-.1407q-.1055-.139-.4043-.5273-.2988-.3867-.668-.8086t-.7031-.7734c-.2226-.2334-.3808-.3985-.4746-.4922q0-.07-.2812-.334c-.1875-.1758-.2813-.2861-.2813-.334a.725.725,0,0,1-.123-.334,2.2194,2.2194,0,0,1-.0528-.3691.7568.7568,0,0,1-.2636-.1934,1.1387,1.1387,0,0,0-.2286-.1933,9.8753,9.8753,0,0,0-1.74-1.09,14.3923,14.3923,0,0,0-1.916-.7734q-.9845-.3165-2.0039-.5625t-2.0039-.4922a1.2284,1.2284,0,0,1-.2637-.0527c-.1289-.0352-.2637-.0752-.4043-.1231s-.2759-.0928-.4043-.1406a.8249.8249,0,0,1-.2285-.1055,1.3592,1.3592,0,0,0-.7031.1406,3.5151,3.5151,0,0,0-.7383.4571,2.88,2.88,0,0,0-.58.6152,1.0835,1.0835,0,0,0-.2285.58v5.2031a2.7212,2.7212,0,0,1,.1582.4746,2.64,2.64,0,0,1,.0879.4043v.2461a.8676.8676,0,0,1-.0879.211.97.97,0,0,1-.1582.246c0,.4.0117.7618.0351,1.09s.0352.6562.0352.9844a7.2,7.2,0,0,1-.07,1.02,7.8627,7.8627,0,0,1-.2461,1.09.4377.4377,0,0,0-.1055.1758,1.45,1.45,0,0,0-.07.2461v.1055a1.9922,1.9922,0,0,0,.0879.5976,2.2726,2.2726,0,0,1,.0879.668v.3516a2.5159,2.5159,0,0,1-.0879.3164,2.5108,2.5108,0,0,0-.0879.3164,1.4026,1.4026,0,0,0,.0879.3691,1.55,1.55,0,0,1,.0879.334V94.31q0,.9154-.0879,1.8808Q73.3627,97.1592,73.3627,98.0717Zm.4219-29.4609v1.8984q0,1.1953.0351,2.3555a18.2177,18.2177,0,0,0,.211,2.2851.8281.8281,0,0,0,.4043.6328,1.346,1.346,0,0,0,.7558.2461,4.1536,4.1536,0,0,0,1.6524-.3164A15.0152,15.0152,0,0,1,78.39,75.15q1.6875-.561,2.7949-1.0547a10.02,10.02,0,0,0,1.9511-1.125,9.7607,9.7607,0,0,0,1.5992-1.5293q.7559-.8964,1.74-2.2324a7.9021,7.9021,0,0,0,.7207-.914,2.3422,2.3422,0,0,0,.4043-.9844V65.06a2.703,2.703,0,0,1,.123-.457,4.0277,4.0277,0,0,0,.1231-.4219V63.935q-.1758-.7032-.334-1.5293a15.5152,15.5152,0,0,0-.3691-1.5293,6.2363,6.2363,0,0,0-.4219-1.09q-.3163-.6673-.7031-1.336t-.7735-1.23a2.6836,2.6836,0,0,0-.6679-.7382,1.93,1.93,0,0,0-.3863-.0879c-.2109-.0352-.3164-.0757-.3164-.1231q-.0351-.07-.2109-.4394a1.5819,1.5819,0,0,1-.1758-.4746q-.0351,0-.1406-.1055a.3837.3837,0,0,1-.1055-.07q-.9147-.422-1.8633-.8438t-1.9336-.914c-.1176-.023-.34-.0581-.6679-.1055s-.6739-.0933-1.0371-.1406-.709-.0933-1.0371-.1406a5.7951,5.7951,0,0,0-.668-.07h-.1758a1.6968,1.6968,0,0,0-1.4062.6153,2.2115,2.2115,0,0,0-.4219,1.6q.0344,3.41-.1055,6.7148T73.7846,68.6108Z" transform="translate(-6.996 -7.6892)"/>
  </g>
</svg>
