<svg id="Layer_1" data-name="Layer 1" xmlns="http://www.w3.org/2000/svg" viewBox="0 0 214.1 135.06"><defs><style>.cls-1{font-size:30px;}.cls-1,.cls-4{font-family:IM_FELL_Double_Pica_Roman, IM FELL Double Pica;}.cls-2{letter-spacing:0em;}.cls-3{font-size:46px;font-family:IM_FELL_Double_Pica_SC, IM FELL Double Pica SC;}.cls-4{font-size:72px;}</style></defs><path d="M302.91,10.66" transform="translate(-7 5.05)"/><text class="cls-1" transform="translate(92.31 126.02)">...a<tspan class="cls-2" x="29.82" y="0">n</tspan><tspan x="45.21" y="0">d after</tspan></text><path d="M7,62.53a1.67,1.67,0,0,1,.35-.65,2.08,2.08,0,0,1,.51-.49l.5-.06A2.08,2.08,0,0,0,9,61.19a8.93,8.93,0,0,0,1.58-.67l1.56-.82c.53-.23,1-.41,1.36-.54a5.73,5.73,0,0,0,1-.46,4.65,4.65,0,0,0,.95-.73,8.42,8.42,0,0,0,1.07-1.3,4.34,4.34,0,0,0,.58-1.26c.15-.5.28-.9.39-1.18a1.4,1.4,0,0,1,.17-.21.9.9,0,0,0,.16-.21l.21-.42a2,2,0,0,0,.17-.34,1.69,1.69,0,0,1,.08-.27c0-.15.1-.3.15-.46s.12-.3.17-.44l.1-.24a1.5,1.5,0,0,1,.14-.2,1.28,1.28,0,0,0,.1-.17L19,51.1c.19-.25.41-.58.67-1s.52-.84.78-1.3l.74-1.32c.23-.42.41-.78.55-1.09.33-.76.71-1.52,1.14-2.29s.83-1.52,1.21-2.29c.21-.51.42-1,.65-1.64s.45-1.13.68-1.64a4.29,4.29,0,0,0,.34-.59,6.35,6.35,0,0,1,.34-.63s.14-.17.32-.36a1.83,1.83,0,0,0,.28-.37.53.53,0,0,0,.09-.21L27,36a3.06,3.06,0,0,0,.14-.38l.07-.21a4.39,4.39,0,0,0,.26-.48c.1-.21.2-.42.29-.63s.18-.38.25-.55l.12-.29a1.68,1.68,0,0,1,.16-.28c.11-.17.21-.35.32-.54l.31-.53c.09-.17.16-.28.19-.33a2.62,2.62,0,0,0,.31-.49c.15-.28.31-.58.47-.9s.32-.62.47-.92a4.21,4.21,0,0,0,.24-.55,10.84,10.84,0,0,0,.51-1c.2-.41.41-.82.64-1.24a12.57,12.57,0,0,1,.73-1.19,3.26,3.26,0,0,1,.78-.82,12.48,12.48,0,0,1,.85-1.81c.34-.57.67-1.13,1-1.68s.67-1.11,1-1.68a7.79,7.79,0,0,0,.67-1.82,2.84,2.84,0,0,0,.09-1.25,2.4,2.4,0,0,0-.28-.75l-.32-.55a1,1,0,0,1,0-.72l.09-.25c0-.11.08-.2.1-.25a7.8,7.8,0,0,1,1.16-.54c.43-.15.85-.32,1.27-.51a6.11,6.11,0,0,0,1.2-.73A3.11,3.11,0,0,0,40.88,11s.11-.19.23-.42l.37-.72c.12-.26.25-.5.36-.73s.2-.37.23-.42A3,3,0,0,1,42.51,8a.82.82,0,0,1,.62-.34l0,0,0,0h.06a1,1,0,0,1,.19.24c.07.12.15.24.24.37a3.48,3.48,0,0,1,.22.36.94.94,0,0,1,.1.24s.07.09.09.25a1.22,1.22,0,0,1,0,.4,4.78,4.78,0,0,0-.05.65q0,.49-.06,1c0,.37,0,.72-.05,1.05a5.55,5.55,0,0,1,0,.61,7.12,7.12,0,0,0,0,.72c0,.38,0,.78.05,1.2s0,.82.06,1.18a3.87,3.87,0,0,1,0,.71c0,.81,0,1.69-.05,2.63s0,1.82,0,2.63a1.13,1.13,0,0,0,0,.25c0,.14,0,.29.08.46s.08.31.12.45a1,1,0,0,0,.09.25A5.86,5.86,0,0,1,44.22,25a5.29,5.29,0,0,0-.07,1.58c.05,1.6.12,3.15.22,4.65s.14,3,.12,4.65a4,4,0,0,1,0,.46c0,.22,0,.47,0,.74s0,.51,0,.74a3.13,3.13,0,0,1,0,.42c0,.05,0,.16,0,.33l.09.51c0,.18.06.34.08.5a2,2,0,0,1,0,.26,1.92,1.92,0,0,0-.05.33c0,.16,0,.34-.06.53s0,.37-.06.53a1.92,1.92,0,0,1-.05.33c0,.1,0,.33,0,.69s0,.73,0,1.12v1.12q0,.54,0,.69c0,1,0,2,.11,3a24.84,24.84,0,0,1,0,3.13c0,1-.11,1.9-.16,2.8a16.1,16.1,0,0,0,0,2.69c0,.38.06.79.07,1.24a3.06,3.06,0,0,0,.18,1.12,2.23,2.23,0,0,0,.68,1.05,3.69,3.69,0,0,0,1.05.62,4.87,4.87,0,0,0,1.22.32,10.88,10.88,0,0,0,1.18.13.67.67,0,0,1,.46.59,3.3,3.3,0,0,1-.1.9l0,.1a.39.39,0,0,0-.05.13,2.05,2.05,0,0,0-.08.19l-.48.27H46a.75.75,0,0,1-.28-.14,1,1,0,0,0-.24-.13h-.17a3.72,3.72,0,0,0-1,.14,3.85,3.85,0,0,1-1,.13A6.11,6.11,0,0,1,42,63.33a6.26,6.26,0,0,0-1.31-.13,2,2,0,0,0-.72.14,1.94,1.94,0,0,1-.71.13,10.55,10.55,0,0,1-1.7-.12,10,10,0,0,0-1.77-.13,15.15,15.15,0,0,0-2.8.27,16.66,16.66,0,0,1-2.9.28h-1a2,2,0,0,1-.3-.61,1.51,1.51,0,0,1,0-.76,1.15,1.15,0,0,1,.65-.77,4.93,4.93,0,0,1,1.28-.42c.5-.1,1.06-.19,1.67-.25s1.2-.15,1.79-.25a8.52,8.52,0,0,0,1.65-.47,3.21,3.21,0,0,0,1.25-.84l.19-.8.19-.8a1,1,0,0,1,0-.29c0-.16,0-.35,0-.57s0-.42,0-.61,0-.35,0-.48,0-.17,0-.38,0-.42-.06-.66,0-.47,0-.67a1.3,1.3,0,0,1,0-.38c0-.08,0-.24,0-.5s0-.53,0-.84,0-.59,0-.85a2.72,2.72,0,0,1,0-.52.93.93,0,0,1,0-.34c0-.21,0-.43,0-.67s0-.47,0-.69a2.82,2.82,0,0,0,0-.4c0-.28,0-.61,0-1s0-.79,0-1.2a7.37,7.37,0,0,0-.08-1.1,1.27,1.27,0,0,0-.31-.73H34.27a1.69,1.69,0,0,0-.36.14,1.28,1.28,0,0,1-.35.13H33.4l-.21,0-.36-.09-.37-.1-.2,0-.2,0a2.25,2.25,0,0,0-.35.09l-.49.14H27.49a4.37,4.37,0,0,0-.44,0l-.68.06-.68.07-.45.08-.12.08a.21.21,0,0,0-.1.08.07.07,0,0,1-.06,0c-.81,1.61-1.61,3.23-2.41,4.89s-1.56,3.3-2.32,4.92a12.67,12.67,0,0,1-.68,1.3A4.86,4.86,0,0,0,19,58.08a2.36,2.36,0,0,0,0,1c.07.33.13.62.2.88l.38,0,.59.1.6.09.38,0,.19.07.35.15.36.14.2,0a3.67,3.67,0,0,0,.85.15,4.46,4.46,0,0,1,.82.15,1,1,0,0,1,.56.4,1.14,1.14,0,0,1,0,.9c-.17.74-.41,1.18-.72,1.33a2.54,2.54,0,0,1-1.17.24H20.87l-.27,0-.41-.09-.42-.09-.26,0H15.68l-.27,0L15,63.41l-.43-.1-.27,0h-.55a2.75,2.75,0,0,0-.52,0,2,2,0,0,0-.61.23H9.2l-.37.17-.28.1H8.39A1,1,0,0,1,8,63.71a2.68,2.68,0,0,1-.49-.28A1.69,1.69,0,0,1,7.11,63,.62.62,0,0,1,7,62.53ZM27.78,41.6c.55.09,1.16.17,1.81.22s1.32.08,2,.09l2,0,1.82,0H36a2,2,0,0,0,.85-.19,1.2,1.2,0,0,0,.53-.87,3.58,3.58,0,0,0,0-1.49,8.94,8.94,0,0,1-.16-1.45q0-1.45,0-2.94a21.66,21.66,0,0,0-.09-2.83,1.62,1.62,0,0,0-.08-.48c-.07-.26-.1-.42-.11-.47a2.84,2.84,0,0,1,0-.46c0-.23.05-.49.07-.77s.05-.53.07-.76,0-.39,0-.46a3.07,3.07,0,0,0,0-.33c0-.19,0-.4-.09-.64s-.07-.49-.1-.75,0-.45,0-.61-.06-.36-.08-.47,0-.22-.06-.31a.4.4,0,0,1,0-.17,2.34,2.34,0,0,1,0-.76c0-.28,0-.55,0-.81a5.58,5.58,0,0,0,0-.72,1.07,1.07,0,0,0-.25-.57h-.16c-.31,0-.63.31-1,.9a18.78,18.78,0,0,0-1,2c-.32.74-.62,1.47-.88,2.18a15.08,15.08,0,0,1-.57,1.4c-.08.16-.21.41-.38.77a5.49,5.49,0,0,1-.34.66c-.5,1.11-1,2.2-1.54,3.3s-1,2.19-1.47,3.29a2,2,0,0,1-.08.29q-.08.26-.18.54c-.06.19-.13.37-.19.54s-.09.28-.11.33a2.12,2.12,0,0,1-.32.46l-.28.33a3.77,3.77,0,0,0-.26.39,2.42,2.42,0,0,0-.19.56l-.06.27a1.67,1.67,0,0,0-.06.51C27.5,41.46,27.59,41.56,27.78,41.6Z" transform="translate(-7 5.05)"/><text class="cls-3" transform="translate(40.58 39.95)"><tspan class="cls-2">p</tspan><tspan x="17.95" y="0">hra</tspan></text><text class="cls-3" transform="translate(92.31 83.67)">ehn</text><text class="cls-4" transform="translate(48.3 108.5)">B</text></svg>